<?xml version="1.0" encoding="utf-8"?>
<!-- Generator: Adobe Illustrator 24.0.0, SVG Export Plug-In . SVG Version: 6.00 Build 0)  -->
<svg version="1.1" id="Layer_1" xmlns="http://www.w3.org/2000/svg" xmlns:xlink="http://www.w3.org/1999/xlink" x="0px" y="0px"
	 viewBox="0 0 883.8 538.1" style="enable-background:new 0 0 883.8 538.1;" xml:space="preserve">
<style type="text/css">
	.st0{fill:#FFFFFF;}
	.st1{enable-background:new    ;}
	.st2{fill:none;stroke:#FFFFFF;stroke-width:1.4173;stroke-miterlimit:10;}
</style>
<g>
	<path class="st0" d="M86,138.3c0,14-3.5,24.7-10.6,32.1s-17.2,11.1-30.5,11.1c-13,0-24.1-2.6-33.2-7.7v-27.5
		c11.2,7.3,21.4,10.9,30.8,10.9c5.3,0,9.3-1.5,12-4.4s4-6.9,4-12c0-5-1.6-9.5-4.8-13.7c-3.2-4.1-8.5-8.7-15.9-13.8
		c-6.4-4.4-11.3-8.7-14.6-12.7c-3.3-4.1-5.9-8.6-7.7-13.7c-1.8-5-2.7-10.9-2.7-17.6c0-12.8,3.6-23,10.7-30.5s16.7-11.3,28.7-11.3
		c11.5,0,22.5,3.2,33,9.6L76,59.4c-3.3-1.9-6.7-3.6-10.3-5.1c-3.6-1.5-7.4-2.2-11.5-2.2c-4.5,0-8,1.5-10.4,4.4
		c-2.4,3-3.6,7-3.6,12.1c0,5,1.4,9.4,4.3,13.2c2.9,3.8,8,8,15.2,12.8c9.8,6.5,16.6,13.2,20.4,20C84.1,121.8,86,129.6,86,138.3z"/>
	<path class="st0" d="M109.4,179.5V30h26.2v149.5H109.4z"/>
	<path class="st0" d="M212.4,96.6h45.7v76.7c-13,5.5-26.7,8.3-41.3,8.3c-17.4,0-30.8-6.6-40.1-19.8c-9.4-13.2-14.1-32.3-14.1-57.2
		c0-24,5.4-42.8,16.1-56.4c10.7-13.6,25.8-20.4,45.1-20.4c11.9,0,23.3,3.1,34.2,9.2l-8.8,22.7c-8.5-4.9-16.4-7.4-23.7-7.4
		c-10.6,0-18.9,4.7-25.1,14.2c-6.2,9.4-9.3,22.3-9.3,38.6c0,16.8,2.2,29.6,6.7,38.6c4.5,8.9,11,13.4,19.5,13.4
		c4.5,0,9.1-0.6,13.7-1.7v-34.3h-18.5V96.6H212.4z"/>
	<path class="st0" d="M377.5,179.5h-27.8v-65.6H313v65.6h-27.8V30H313v59.4h36.7V30h27.8V179.5z"/>
	<path class="st0" d="M458.2,179.5h-27.7V54.4h-28.6V30h85v24.4h-28.6L458.2,179.5L458.2,179.5z"/>
	<path class="st0" d="M507.8,179.5V30H534v149.5H507.8z"/>
	<path class="st0" d="M666.1,179.5h-34L585.9,71.2h-1.3c1.7,8.3,2.6,17.1,2.6,26.6v81.7h-25.8V30h34.2l45.8,107.2h1.1
		c-1.3-7.2-1.9-15.7-1.9-25.6V30h25.6L666.1,179.5L666.1,179.5z"/>
	<path class="st0" d="M737.7,96.6h45.7v76.7c-13,5.5-26.7,8.3-41.3,8.3c-17.4,0-30.8-6.6-40.1-19.8c-9.4-13.2-14.1-32.3-14.1-57.2
		c0-24,5.4-42.8,16.1-56.4c10.7-13.6,25.8-20.4,45.1-20.4c11.9,0,23.3,3.1,34.2,9.2l-8.8,22.7c-8.5-4.9-16.4-7.4-23.7-7.4
		c-10.6,0-18.9,4.7-25.1,14.2c-6.2,9.4-9.3,22.3-9.3,38.6c0,16.8,2.2,29.6,6.7,38.6c4.5,8.9,11,13.4,19.5,13.4
		c4.5,0,9.1-0.6,13.7-1.7v-34.3h-18.5V96.6H737.7z"/>
	<path class="st0" d="M878.6,138.3c0,14-3.5,24.7-10.6,32.1s-17.2,11.1-30.5,11.1c-13,0-24.1-2.6-33.2-7.7v-27.5
		c11.2,7.3,21.4,10.9,30.8,10.9c5.3,0,9.3-1.5,12-4.4s4-6.9,4-12c0-5-1.6-9.5-4.8-13.7c-3.2-4.1-8.5-8.7-15.9-13.8
		c-6.4-4.4-11.3-8.7-14.6-12.7c-3.3-4.1-5.9-8.6-7.7-13.7c-1.8-5-2.7-10.9-2.7-17.6c0-12.8,3.6-23,10.7-30.5
		c7.1-7.5,16.7-11.3,28.7-11.3c11.5,0,22.5,3.2,33,9.6l-9.2,22.3c-3.3-1.9-6.7-3.6-10.3-5.1s-7.4-2.2-11.5-2.2
		c-4.5,0-8,1.5-10.4,4.4c-2.4,3-3.6,7-3.6,12.1c0,5,1.4,9.4,4.3,13.2c2.9,3.8,8,8,15.2,12.8c9.8,6.5,16.6,13.2,20.4,20
		C876.6,121.8,878.6,129.6,878.6,138.3z"/>
</g>
<g class="st1">
	<path class="st0" d="M14.5,258.9c-1.2-0.3-2.5-0.8-3.9-1.6c-0.3-0.2-0.4-0.6-0.4-1.1l0.8-7.8c0-0.2,0.1-0.3,0.3-0.3
		c0.2,0,0.3,0.1,0.3,0.3c0.1,2.8,0.8,5.2,2.1,7.1c1.3,1.9,3.3,2.9,6,2.9c1.9,0,3.6-0.6,5.1-1.7c1.5-1.1,2.4-2.9,2.8-5.2
		c0.1-0.7,0.2-1.3,0.2-1.8c0-1.9-0.6-3.5-1.7-4.8c-1.1-1.3-2.8-2.7-4.9-4.1c-1.5-1.1-2.6-2-3.5-2.7c-0.8-0.7-1.6-1.6-2.2-2.6
		c-0.6-1-0.9-2.2-0.9-3.6c0-0.6,0.1-1.1,0.2-1.7c0.4-2,1.2-3.7,2.4-5c1.2-1.4,2.7-2.4,4.4-3.1c1.7-0.7,3.5-1,5.3-1
		c2.1,0,4.2,0.5,6.4,1.4c0.5,0.3,0.7,0.6,0.7,1l-0.8,6.6c0,0.2-0.1,0.2-0.3,0.2c-0.2,0-0.3-0.1-0.4-0.2c-0.2-2.3-0.7-4.3-1.7-5.8
		c-1-1.5-2.6-2.3-4.9-2.3c-1.7,0-3.1,0.4-4.2,1.3c-1.1,0.8-2,1.9-2.5,3.2c-0.5,1.3-0.8,2.5-0.8,3.7c0,1.2,0.3,2.3,0.9,3.3
		s1.3,1.8,2.1,2.5c0.8,0.7,2,1.5,3.4,2.5c2.3,1.5,4,2.9,5.2,4.3c1.2,1.3,1.8,3,1.8,5c0,0.7,0,1.3-0.1,1.7c-0.5,2.9-2,5.3-4.3,7.2
		c-2.4,1.9-5.4,2.9-9.2,2.9C17,259.4,15.7,259.2,14.5,258.9z"/>
	<path class="st0" d="M56.1,236.9c1,1,1.5,2.6,1.5,4.6c0,0.6-0.1,1.3-0.2,2.1c-0.4,2.6-1.2,5.1-2.7,7.4c-1.4,2.3-3.1,4.2-5.2,5.5
		c-2,1.4-4,2.1-6.1,2.1c-1.4,0-2.5-0.1-3.4-0.2l-1.9,10.7c-0.1,0.7-0.2,1.2-0.2,1.7c0,0.7,0.2,1.2,0.5,1.5c0.3,0.3,0.9,0.5,1.6,0.5
		c0.2,0,0.7,0,1.4-0.1h0.1c0.1,0,0.2,0.1,0.2,0.3c0,0.2,0,0.3-0.2,0.4l-10.2,1.5c-0.2,0-0.3-0.1-0.3-0.3c0-0.2,0-0.4,0.2-0.4
		c0.9-0.2,1.5-0.4,2-0.6c0.4-0.3,0.8-0.7,1-1.2c0.2-0.6,0.4-1.5,0.7-2.8l5-28.1l-2.7,2l-0.1,0.1c-0.1,0-0.2-0.1-0.3-0.3
		c-0.1-0.2-0.1-0.3,0-0.3c1.3-1.1,2.4-2.1,3.4-2.7l0.8-4.4c0-0.1,0.3-0.4,0.8-0.9c0.6-0.5,1-1,1.5-1.6c0.4-0.6,0.7-1.2,0.9-1.9
		c0-0.1,0.1-0.2,0.3-0.2c0.1,0,0.2,0,0.3,0.1c0.1,0.1,0.1,0.1,0.1,0.2l-1.1,6.3c2.9-1.7,5.5-2.5,8-2.5
		C53.7,235.4,55.1,235.9,56.1,236.9z M54.2,243.2c0-3.8-1.6-5.7-4.9-5.7c-1.8,0-3.7,0.6-5.7,1.7l-3,16.8c1.4,0.7,3,1,4.6,1
		c2.5,0,4.5-1,6-3.1c1.5-2.1,2.5-4.9,2.9-8.3C54.1,244.8,54.2,244,54.2,243.2z"/>
	<path class="st0" d="M62.6,257c-1.3-1.7-2-3.8-2-6.5c0-1.2,0.1-2.3,0.3-3.3c0.4-2.3,1.3-4.4,2.5-6.2c1.2-1.9,2.7-3.3,4.4-4.4
		c1.7-1.1,3.6-1.6,5.5-1.6c2.4,0,4.3,0.8,5.7,2.5c1.3,1.6,2,3.8,2,6.4c0,1.1-0.1,2.2-0.4,3.4c-0.5,2.4-1.4,4.6-2.7,6.4
		c-1.3,1.9-2.8,3.3-4.6,4.3c-1.8,1-3.5,1.5-5.4,1.5C65.8,259.5,64,258.7,62.6,257z M74.7,255.8c1.3-1.5,2.3-3.5,2.7-6
		c0.2-1.3,0.3-2.4,0.3-3.4c0-2.7-0.5-5.1-1.6-7c-1-2-2.5-2.9-4.5-2.9c-1.7,0-3.2,0.7-4.6,2.2c-1.3,1.5-2.3,3.5-2.8,6
		c-0.2,1.2-0.4,2.4-0.4,3.6c0,2.6,0.6,4.9,1.7,6.8c1.1,1.9,2.6,2.9,4.6,2.9C71.9,258,73.4,257.3,74.7,255.8z"/>
	<path class="st0" d="M100.2,236.4c0,0.3-0.2,0.7-0.7,1.2c-0.4,0.5-0.8,0.8-1.2,0.8c-0.2,0-1-0.1-2.3-0.3c-1.4-0.2-2.7-0.3-4-0.3
		l-2.6,14.7c-0.1,0.6-0.2,1.2-0.2,1.7c0,1,0.2,1.7,0.7,2.2c0.5,0.5,1.2,0.7,2.2,0.7c1,0,2-0.2,2.9-0.7c0.9-0.5,1.8-1.1,2.8-1.9h0.1
		c0.1,0,0.2,0.1,0.4,0.2c0.1,0.1,0.1,0.2,0,0.3c-1.8,1.5-3.3,2.7-4.7,3.3c-1.3,0.7-2.6,1-3.8,1c-1.1,0-2.1-0.3-2.8-0.9
		c-0.8-0.6-1.1-1.5-1.1-2.8c0-0.2,0-0.7,0.1-1.3l2.5-13.8c0.2-0.8,0.2-1.4,0.2-1.9c0-0.6-0.2-0.9-0.5-1.1c-0.3-0.2-0.9-0.3-1.8-0.3
		c-0.1,0-0.2-0.1-0.2-0.3c0-0.1,0-0.2,0.1-0.3c0.1-0.1,0.1-0.1,0.1-0.1c1.3,0,2.5-0.4,3.5-1.3c1-0.9,1.7-2,2-3.3
		c0.1-0.1,0.3-0.2,0.5-0.2c0.4,0,0.6,0.1,0.5,0.2l-0.8,4.4c1.9-0.1,3.8-0.2,5.5-0.3l2-0.1C100,236,100.2,236.1,100.2,236.4z"/>
	<path class="st0" d="M117.7,236.4c0,0.3-0.2,0.7-0.7,1.2c-0.4,0.5-0.8,0.8-1.2,0.8c-0.2,0-1-0.1-2.3-0.3c-1.4-0.2-2.7-0.3-4-0.3
		l-2.6,14.7c-0.1,0.6-0.2,1.2-0.2,1.7c0,1,0.2,1.7,0.7,2.2c0.5,0.5,1.2,0.7,2.2,0.7c1,0,2-0.2,2.9-0.7c0.9-0.5,1.8-1.1,2.8-1.9h0.1
		c0.1,0,0.2,0.1,0.4,0.2c0.1,0.1,0.1,0.2,0,0.3c-1.8,1.5-3.3,2.7-4.7,3.3c-1.3,0.7-2.6,1-3.8,1c-1.1,0-2.1-0.3-2.8-0.9
		c-0.8-0.6-1.1-1.5-1.1-2.8c0-0.2,0-0.7,0.1-1.3l2.5-13.8c0.2-0.8,0.2-1.4,0.2-1.9c0-0.6-0.2-0.9-0.5-1.1c-0.3-0.2-0.9-0.3-1.8-0.3
		c-0.1,0-0.2-0.1-0.2-0.3c0-0.1,0-0.2,0.1-0.3c0.1-0.1,0.1-0.1,0.1-0.1c1.3,0,2.5-0.4,3.5-1.3c1-0.9,1.7-2,2-3.3
		c0.1-0.1,0.3-0.2,0.5-0.2c0.4,0,0.6,0.1,0.5,0.2l-0.8,4.4c1.9-0.1,3.8-0.2,5.5-0.3l2-0.1C117.5,236,117.7,236.1,117.7,236.4z"/>
	<path class="st0" d="M122.4,258.6c-0.4-0.4-0.5-1.1-0.5-2c0-0.6,0.1-1.6,0.4-3.1l2.4-12.3c0.1-0.6,0.2-1.1,0.2-1.6
		c0-1.3-0.4-1.9-1.2-1.9c-0.5,0-1.1,0.2-1.8,0.7c-0.7,0.5-1.5,1.1-2.3,2c0,0-0.1,0.1-0.2,0.1c-0.1,0-0.2-0.1-0.3-0.2
		c-0.1-0.1-0.1-0.2,0-0.3c1.4-1.6,2.6-2.7,3.7-3.5c1.1-0.7,2.2-1.1,3.1-1.1c0.7,0,1.2,0.2,1.6,0.6c0.3,0.4,0.5,1.1,0.5,2
		c0,0.8-0.1,1.8-0.4,3l-2.4,12.4c-0.1,0.6-0.2,1.2-0.2,1.6c0,1.2,0.4,1.8,1.1,1.8c0.9,0,2.3-0.9,4-2.6c0.1-0.1,0.2-0.1,0.2-0.1
		c0.1,0,0.2,0.1,0.3,0.2c0.1,0.1,0.1,0.3-0.1,0.4c-1.3,1.5-2.5,2.7-3.6,3.4s-2.1,1.1-3.1,1.1C123.3,259.2,122.7,259,122.4,258.6z
		 M125.9,227.6c-0.5-0.5-0.7-1.1-0.7-1.9c0-0.8,0.2-1.3,0.7-1.8c0.5-0.4,1.1-0.7,1.9-0.7c0.8,0,1.4,0.2,1.8,0.7
		c0.4,0.4,0.7,1,0.7,1.8c0,0.8-0.2,1.4-0.7,1.9c-0.4,0.5-1,0.7-1.8,0.7C126.9,228.3,126.3,228,125.9,227.6z"/>
	<path class="st0" d="M158.5,254c0.1,0,0.2,0.1,0.3,0.2c0.1,0.1,0.1,0.3,0,0.4c-1.3,1.6-2.5,2.7-3.6,3.5c-1,0.8-2.1,1.1-3.1,1.1
		c-0.7,0-1.2-0.2-1.6-0.6c-0.3-0.4-0.5-1.1-0.5-2c0-0.8,0.1-1.8,0.4-3.1l1.7-9.4c0.2-1.3,0.4-2.3,0.4-3.2c0-2.3-0.8-3.4-2.5-3.4
		c-1.3,0-2.7,0.8-4.1,2.5c-1.4,1.7-2.7,4.1-3.9,7.3c-1.2,3.2-2.2,6.9-3,11.2c-0.1,0.3-0.3,0.5-0.6,0.7c-0.3,0.2-0.8,0.2-1.3,0.2
		c-0.6,0-0.9,0-1.1-0.1c-0.2-0.1-0.3-0.1-0.3-0.3l0.2-1.4c0.2-0.9,0.5-2,0.7-3.1l2.4-13.2c0.1-0.6,0.2-1.1,0.2-1.6
		c0-1.3-0.4-1.9-1.2-1.9c-0.5,0-1.1,0.2-1.8,0.7c-0.7,0.5-1.5,1.1-2.3,2c0,0-0.1,0.1-0.2,0.1c-0.1,0-0.2-0.1-0.3-0.2
		c-0.1-0.1-0.1-0.2,0-0.3c1.3-1.5,2.6-2.7,3.7-3.4s2.2-1.1,3.2-1.1c0.7,0,1.2,0.2,1.5,0.6c0.3,0.4,0.5,1.1,0.5,2
		c0,1-0.1,2.1-0.3,3.1l-1.2,7.2c1.4-4.1,3.1-7.3,5-9.6c1.9-2.3,4-3.5,6.1-3.5c1.3,0,2.3,0.4,2.9,1.1c0.6,0.7,0.9,1.8,0.9,3.4
		c0,0.9-0.1,2.1-0.4,3.4l-2,10.5c-0.1,0.6-0.2,1.1-0.2,1.6c0,1.2,0.4,1.8,1.2,1.8c0.8,0,2.1-0.9,3.9-2.7
		C158.4,254,158.4,254,158.5,254z"/>
	<path class="st0" d="M182.4,236c0,0.5-0.1,1-0.3,1.5c-0.2,0.5-0.3,0.8-0.5,0.7c-0.9-0.5-2-0.7-3.3-0.7c-0.5,0-0.9,0-1.2,0.1
		c0.8,1.1,1.2,2.6,1.2,4.3c0,0.8-0.1,1.6-0.2,2.3c-0.4,1.7-1,3.3-2.1,4.6c-1,1.3-2.2,2.3-3.6,3.1c-1.4,0.7-2.8,1.1-4.2,1.1
		c-0.4,0-0.9,0-1.4-0.1c-0.5,0.6-0.8,1.2-0.9,1.9c-0.1,1,0.3,1.9,1.2,2.6c0.9,0.7,2.3,1.6,4.2,2.5c1.5,0.8,2.7,1.5,3.6,2
		c0.9,0.6,1.7,1.2,2.3,2.1c0.7,0.8,1,1.8,1,2.8c0,1.5-0.6,2.9-1.7,4.2c-1.1,1.3-2.7,2.4-4.6,3.2c-1.9,0.8-4,1.2-6.2,1.2
		c-2.7,0-4.9-0.6-6.5-1.7c-1.6-1.2-2.4-2.6-2.4-4.2c0-1.7,0.7-3.3,2.2-4.6c1.5-1.3,3.6-2.8,6.3-4.4c-1.4-1-2.1-2.1-2.1-3.3
		c0-0.8,0.2-1.5,0.7-2.2c0.5-0.7,1.2-1.5,2.1-2.3c-1.2-0.4-2.1-1.2-2.8-2.3c-0.7-1.1-1-2.4-1-3.8c0-0.7,0.1-1.4,0.3-2.3
		c0.5-2.5,1.7-4.6,3.6-6.2c1.9-1.6,4-2.5,6.3-2.5c1.6,0,2.9,0.5,4,1.4c2.1-1,4-1.5,5.7-1.5C182.3,235.3,182.4,235.5,182.4,236z
		 M173.6,265.4c-1.1-0.9-2.7-2-4.9-3.1c-1.1-0.5-2.1-1-2.8-1.5c-1.9,1.2-3.3,2.3-4.3,3.2c-1,1-1.5,2.2-1.5,3.8
		c0,1.7,0.8,3.1,2.3,4.2c1.5,1.1,3.6,1.7,6.1,1.7c2.1,0,3.8-0.5,4.9-1.4c1.2-0.9,1.7-2.1,1.7-3.4
		C175.2,267.5,174.7,266.3,173.6,265.4z M175.1,243.5c0-1.9-0.4-3.5-1.1-4.9c-0.7-1.4-1.7-2.1-3.1-2.1c-1.2,0-2.3,0.6-3.3,1.7
		c-1,1.2-1.6,2.6-1.9,4.4c-0.1,0.8-0.2,1.5-0.2,2.3c0,1.9,0.4,3.5,1.1,4.9c0.7,1.3,1.8,2,3.1,2c1.2,0,2.3-0.5,3.2-1.6
		c1-1.1,1.6-2.6,1.9-4.4C175.1,245,175.1,244.2,175.1,243.5z"/>
	<path class="st0" d="M213.3,236.4c0,0.3-0.2,0.7-0.7,1.2c-0.4,0.5-0.8,0.8-1.2,0.8c-0.2,0-1-0.1-2.3-0.3c-1.4-0.2-2.7-0.3-4-0.3
		l-2.6,14.7c-0.1,0.6-0.2,1.2-0.2,1.7c0,1,0.2,1.7,0.7,2.2c0.5,0.5,1.2,0.7,2.2,0.7c1,0,2-0.2,2.9-0.7c0.9-0.5,1.8-1.1,2.8-1.9h0.1
		c0.1,0,0.2,0.1,0.4,0.2c0.1,0.1,0.1,0.2,0,0.3c-1.8,1.5-3.3,2.7-4.7,3.3c-1.3,0.7-2.6,1-3.8,1c-1.1,0-2.1-0.3-2.8-0.9
		c-0.8-0.6-1.1-1.5-1.1-2.8c0-0.2,0-0.7,0.1-1.3l2.5-13.8c0.2-0.8,0.2-1.4,0.2-1.9c0-0.6-0.2-0.9-0.5-1.1c-0.3-0.2-0.9-0.3-1.8-0.3
		c-0.1,0-0.2-0.1-0.2-0.3c0-0.1,0-0.2,0.1-0.3c0.1-0.1,0.1-0.1,0.1-0.1c1.3,0,2.5-0.4,3.5-1.3c1-0.9,1.7-2,2-3.3
		c0.1-0.1,0.3-0.2,0.5-0.2c0.4,0,0.6,0.1,0.5,0.2l-0.8,4.4c1.9-0.1,3.8-0.2,5.5-0.3l2-0.1C213.1,236,213.3,236.1,213.3,236.4z"/>
	<path class="st0" d="M238.3,254c0.1,0,0.2,0.1,0.3,0.2c0.1,0.1,0.1,0.3-0.1,0.4c-1.3,1.6-2.5,2.7-3.6,3.5c-1,0.8-2.1,1.1-3.1,1.1
		c-0.7,0-1.2-0.2-1.6-0.6c-0.3-0.4-0.5-1.1-0.5-2c0-0.8,0.1-1.8,0.4-3.1l1.7-9.4c0.2-1.3,0.4-2.3,0.4-3.2c0-2.3-0.9-3.4-2.5-3.4
		c-1.3,0-2.6,0.8-4,2.4c-1.4,1.6-2.7,4-3.9,7c-1.2,3.1-2.2,6.7-3,10.9l-0.1,0.6c-0.1,0.3-0.3,0.5-0.6,0.7c-0.3,0.2-0.8,0.2-1.3,0.2
		c-0.9,0-1.4-0.1-1.4-0.4l0.2-1.4c0.2-0.9,0.5-2,0.7-3.1l6-32.3c0.1-0.6,0.1-1,0.1-1.2c0-1-0.4-1.5-1.3-1.5c-0.6,0-1.6,0.3-2.8,0.9
		h-0.1c-0.2,0-0.3-0.1-0.3-0.3c0-0.2,0-0.3,0.1-0.4l7.6-3.7h0.1c0.2,0,0.3,0.1,0.4,0.2c0.1,0.1,0.2,0.2,0.1,0.3l-5.7,31.6
		c1.4-4,3.1-7.1,5-9.4c1.9-2.3,3.9-3.4,6-3.4c1.3,0,2.3,0.4,2.9,1.1c0.6,0.7,0.9,1.9,0.9,3.4c0,0.9-0.1,2-0.4,3.3l-2,10.5
		c-0.1,0.6-0.2,1.1-0.2,1.6c0,1.2,0.4,1.8,1.1,1.8c0.9,0,2.2-0.9,3.9-2.7C238.2,254,238.2,254,238.3,254z"/>
	<path class="st0" d="M257.4,241.2c-1.3,1.1-3,2.1-5.2,2.9c-2.2,0.8-4.5,1.4-7,1.8c-0.2,1.3-0.3,2.3-0.3,3.3c0,2.4,0.6,4.4,1.7,5.9
		c1.1,1.5,2.7,2.2,4.7,2.2c2.2,0,4.2-0.7,5.9-2h0.1c0.1,0,0.2,0.1,0.3,0.2c0.1,0.1,0.1,0.2,0,0.4c-2.8,2.3-5.6,3.4-8.6,3.4
		c-2.5,0-4.4-0.8-5.7-2.4c-1.3-1.6-1.9-3.7-1.9-6.2c0-0.9,0.1-1.9,0.3-3.1c0.4-2,1.2-4,2.5-6c1.3-2,2.9-3.6,4.9-4.8
		c2-1.3,4-1.9,6.1-1.9c1.3,0,2.3,0.2,3,0.7c0.7,0.5,1.1,1.1,1.1,2C259.4,238.9,258.7,240.1,257.4,241.2z M248.1,239
		c-1.2,1.6-2.1,3.6-2.6,6.1c2.8-0.5,5-1.2,6.7-2.1c1.7-0.9,2.8-2.1,3.1-3.6c0.1-0.4,0.1-0.7,0.1-0.8c0-0.7-0.3-1.2-0.8-1.5
		c-0.6-0.3-1.2-0.5-2-0.5C250.8,236.6,249.3,237.4,248.1,239z"/>
	<path class="st0" d="M291.6,241.2c-1.3,1.1-3,2.1-5.2,2.9c-2.2,0.8-4.5,1.4-7,1.8c-0.2,1.3-0.3,2.3-0.3,3.3c0,2.4,0.6,4.4,1.7,5.9
		c1.1,1.5,2.7,2.2,4.7,2.2c2.2,0,4.2-0.7,5.9-2h0.1c0.1,0,0.2,0.1,0.3,0.2c0.1,0.1,0.1,0.2,0,0.4c-2.8,2.3-5.6,3.4-8.6,3.4
		c-2.5,0-4.4-0.8-5.7-2.4c-1.3-1.6-1.9-3.7-1.9-6.2c0-0.9,0.1-1.9,0.3-3.1c0.4-2,1.2-4,2.5-6c1.3-2,2.9-3.6,4.9-4.8
		c2-1.3,4-1.9,6.1-1.9c1.3,0,2.3,0.2,3,0.7c0.7,0.5,1.1,1.1,1.1,2C293.5,238.9,292.9,240.1,291.6,241.2z M282.2,239
		c-1.2,1.6-2.1,3.6-2.6,6.1c2.8-0.5,5-1.2,6.7-2.1c1.7-0.9,2.8-2.1,3.1-3.6c0.1-0.4,0.1-0.7,0.1-0.8c0-0.7-0.3-1.2-0.8-1.5
		c-0.6-0.3-1.2-0.5-2-0.5C285,236.6,283.5,237.4,282.2,239z"/>
	<path class="st0" d="M298.1,258.6c-0.3-0.4-0.5-1.1-0.5-2.1c0-0.8,0.1-1.9,0.4-3.1l5.9-31.4c0.1-0.3,0.1-0.8,0.1-1.3
		c0-1-0.4-1.5-1.2-1.5c-0.6,0-1.6,0.3-2.8,0.9h-0.1c-0.2,0-0.3-0.1-0.3-0.3c-0.1-0.2,0-0.3,0.1-0.4l7.6-3.7h0.1
		c0.2,0,0.3,0.1,0.4,0.2c0.1,0.1,0.2,0.2,0.1,0.3l-6.9,37.2c-0.2,0.9-0.2,1.4-0.2,1.7c0,0.6,0.1,1,0.3,1.3c0.2,0.3,0.5,0.4,0.9,0.4
		c0.8,0,2.1-0.9,3.9-2.7c0.1-0.1,0.2-0.1,0.2-0.1c0.1,0,0.2,0.1,0.3,0.2c0.1,0.1,0.1,0.3-0.1,0.4c-1.3,1.6-2.5,2.7-3.6,3.5
		c-1,0.8-2.1,1.1-3.1,1.1C299,259.2,298.5,259,298.1,258.6z"/>
	<path class="st0" d="M334.4,254.1c0.1,0,0.2,0.1,0.3,0.2c0.1,0.1,0.1,0.2,0,0.3c-1.4,1.6-2.6,2.7-3.7,3.5c-1.1,0.7-2.2,1.1-3.2,1.1
		c-0.7,0-1.2-0.2-1.5-0.6c-0.3-0.4-0.5-1.1-0.5-2c0-1,0.1-2.1,0.3-3.1l1.2-7.2c-1.4,4.1-3.1,7.3-5,9.6c-1.9,2.3-4,3.5-6.1,3.5
		c-2.6,0-3.9-1.5-3.9-4.4c0-1.1,0.1-2.2,0.4-3.4l2.1-10.5c0.1-0.7,0.2-1.2,0.2-1.6c0-1.2-0.4-1.8-1.1-1.8c-0.8,0-2.1,0.9-3.9,2.7
		c-0.1,0.1-0.2,0.1-0.2,0.1c-0.1,0-0.2-0.1-0.3-0.2c-0.1-0.1-0.1-0.3,0.1-0.4c1.4-1.6,2.6-2.7,3.6-3.5c1-0.8,2.1-1.1,3.1-1.1
		c1.4,0,2.1,0.9,2.1,2.7c0,0.6-0.1,1.6-0.4,3.1l-1.9,9.4c-0.3,1.5-0.4,2.6-0.4,3.3c0,2.3,0.8,3.4,2.5,3.4c1.3,0,2.7-0.8,4.1-2.5
		c1.4-1.7,2.7-4.1,4-7.2c1.2-3.2,2.2-6.9,3-11.2c0.1-0.6,0.8-0.9,1.9-0.9c0.9,0,1.4,0.1,1.4,0.4l-0.2,1.4c-0.2,0.9-0.5,2-0.7,3.1
		l-2.4,13.2c-0.1,0.6-0.2,1.1-0.2,1.6c0,1.3,0.4,1.9,1.2,1.9c0.4,0,1-0.2,1.7-0.7c0.7-0.5,1.5-1.1,2.3-2
		C334.3,254.1,334.3,254.1,334.4,254.1z"/>
	<path class="st0" d="M338,258.2c-1.1-0.7-1.6-1.6-1.4-2.6c0-0.5,0.2-0.9,0.6-1.2c0.4-0.3,0.7-0.4,1.2-0.4c0.4,0,0.6,0.1,0.9,0.4
		c0.2,0.2,0.5,0.6,0.8,1.2c0.5,0.8,1,1.4,1.5,1.8c0.5,0.4,1.2,0.7,2.2,0.7c2.2,0,3.4-1.2,3.8-3.6c0-0.2,0.1-0.5,0.1-0.8
		c0-1.1-0.3-2.1-0.9-3c-0.6-0.8-1.6-1.8-3-2.9c-1.3-1.1-2.3-2-2.9-2.8c-0.7-0.8-1-1.8-1-2.9c0-0.2,0-0.5,0.1-1
		c0.4-1.8,1.3-3.2,2.8-4.2c1.5-1,3.2-1.6,5.1-1.6c1.3,0,2.5,0.3,3.4,0.8c0.9,0.5,1.4,1.2,1.4,2c0,0.6-0.2,1-0.6,1.4
		c-0.4,0.3-0.8,0.5-1.3,0.5c-0.4,0-0.8-0.1-1.1-0.4c-0.3-0.2-0.6-0.6-1-1.1c-0.4-0.6-0.9-1.1-1.3-1.4c-0.4-0.3-1-0.4-1.7-0.4
		c-0.9,0-1.7,0.3-2.3,0.8c-0.6,0.5-0.9,1.3-0.9,2.3c0,1.1,0.3,2,1,2.9c0.7,0.8,1.6,1.8,2.9,2.9c1.4,1.2,2.4,2.3,3.1,3.1
		c0.7,0.8,1,1.9,1,3.1c0,1.3-0.4,2.5-1.1,3.7c-0.8,1.2-1.8,2.2-3.1,2.9c-1.3,0.7-2.7,1.1-4.2,1.1C340.4,259.3,339.1,258.9,338,258.2
		z"/>
	<path class="st0" d="M358.7,258.6c-0.4-0.4-0.5-1.1-0.5-2c0-0.6,0.1-1.6,0.4-3.1l2.4-12.3c0.1-0.6,0.2-1.1,0.2-1.6
		c0-1.3-0.4-1.9-1.2-1.9c-0.5,0-1.1,0.2-1.8,0.7c-0.7,0.5-1.5,1.1-2.3,2c0,0-0.1,0.1-0.2,0.1c-0.1,0-0.2-0.1-0.3-0.2
		c-0.1-0.1-0.1-0.2,0-0.3c1.4-1.6,2.6-2.7,3.7-3.5c1.1-0.7,2.2-1.1,3.1-1.1c0.7,0,1.2,0.2,1.6,0.6c0.3,0.4,0.5,1.1,0.5,2
		c0,0.8-0.1,1.8-0.4,3l-2.4,12.4c-0.1,0.6-0.2,1.2-0.2,1.6c0,1.2,0.4,1.8,1.1,1.8c0.9,0,2.3-0.9,4-2.6c0.1-0.1,0.2-0.1,0.2-0.1
		c0.1,0,0.2,0.1,0.3,0.2c0.1,0.1,0.1,0.3-0.1,0.4c-1.3,1.5-2.5,2.7-3.6,3.4s-2.1,1.1-3.1,1.1C359.6,259.2,359,259,358.7,258.6z
		 M362.2,227.6c-0.5-0.5-0.7-1.1-0.7-1.9c0-0.8,0.2-1.3,0.7-1.8c0.5-0.4,1.1-0.7,1.9-0.7c0.8,0,1.4,0.2,1.8,0.7
		c0.4,0.4,0.7,1,0.7,1.8c0,0.8-0.2,1.4-0.7,1.9c-0.4,0.5-1,0.7-1.8,0.7C363.2,228.3,362.6,228,362.2,227.6z"/>
	<path class="st0" d="M375.5,257.4c-0.9-1.3-1.4-3-1.4-4.9c0-1.3,0.3-2.7,0.8-4.1c0.5-1.4,1.3-3.2,2.3-5.3l1.3-2.8
		c0.2-0.3,0.2-0.6,0.2-0.9c0-0.4-0.3-0.6-0.8-0.6h-3c-1.1,0-1.8,0.1-2.3,0.2c-0.5,0.1-0.9,0.4-1.2,0.8c-0.3,0.4-0.6,1.1-0.9,2
		c0,0.1-0.2,0.2-0.4,0.2c-0.1,0-0.2,0-0.3-0.1c-0.1-0.1-0.1-0.2,0-0.3c0.6-1.8,1.2-3.1,1.6-3.9s0.9-1.3,1.5-1.6
		c0.6-0.3,1.5-0.4,2.8-0.4h5.3c0.4,0,0.7,0.1,0.7,0.2c0,0.1-0.1,0.2-0.2,0.5c-1.2,2.8-2.3,5.5-3.1,8.1c-0.8,2.6-1.2,4.8-1.2,6.5
		c0,1.7,0.4,3,1.1,4c0.7,1,1.7,1.5,3,1.5c1.8,0,3.5-0.9,5.2-2.6c1.7-1.7,2.8-4,3.6-6.8c0.4-1.4,0.5-2.5,0.5-3.4c0-1.1-0.2-2-0.5-2.6
		c-0.3-0.6-0.8-1.1-1.3-1.6c-0.4-0.4-0.8-0.8-1-1.1c-0.3-0.3-0.4-0.7-0.4-1.2c0-0.7,0.2-1.2,0.7-1.5c0.5-0.3,1-0.5,1.6-0.5
		c0.9,0,1.6,0.5,2,1.5c0.4,1,0.7,2.4,0.7,4c0,1.3-0.1,2.4-0.2,3.4c-0.4,3-1.3,5.6-2.7,7.9s-2.9,4.1-4.7,5.4s-3.5,1.9-5.1,1.9
		C377.7,259.4,376.4,258.7,375.5,257.4z"/>
	<path class="st0" d="M411.6,241.2c-1.3,1.1-3,2.1-5.2,2.9c-2.2,0.8-4.5,1.4-7,1.8c-0.2,1.3-0.3,2.3-0.3,3.3c0,2.4,0.6,4.4,1.7,5.9
		c1.1,1.5,2.7,2.2,4.7,2.2c2.2,0,4.2-0.7,5.9-2h0.1c0.1,0,0.2,0.1,0.3,0.2c0.1,0.1,0.1,0.2,0,0.4c-2.8,2.3-5.6,3.4-8.6,3.4
		c-2.5,0-4.4-0.8-5.7-2.4c-1.3-1.6-1.9-3.7-1.9-6.2c0-0.9,0.1-1.9,0.3-3.1c0.4-2,1.2-4,2.5-6c1.3-2,2.9-3.6,4.9-4.8
		c2-1.3,4-1.9,6.1-1.9c1.3,0,2.3,0.2,3,0.7c0.7,0.5,1.1,1.1,1.1,2C413.5,238.9,412.9,240.1,411.6,241.2z M402.3,239
		c-1.2,1.6-2.1,3.6-2.6,6.1c2.8-0.5,5-1.2,6.7-2.1c1.7-0.9,2.8-2.1,3.1-3.6c0.1-0.4,0.1-0.7,0.1-0.8c0-0.7-0.3-1.2-0.8-1.5
		c-0.6-0.3-1.2-0.5-2-0.5C405,236.6,403.5,237.4,402.3,239z"/>
	<path class="st0" d="M467,254c0.1,0,0.2,0.1,0.3,0.2c0.1,0.1,0.1,0.3-0.1,0.4c-1.3,1.6-2.5,2.7-3.6,3.5c-1,0.8-2.1,1.1-3.1,1.1
		c-0.7,0-1.2-0.2-1.5-0.6c-0.3-0.4-0.5-1.1-0.5-2c0-0.8,0.1-1.9,0.4-3.2l1.7-9.4c0.2-1,0.3-2.1,0.3-3.2c0-1.1-0.2-2-0.6-2.6
		c-0.4-0.6-1-0.9-1.7-0.9c-1.2,0-2.5,0.8-3.8,2.4c-1.3,1.6-2.6,3.9-3.8,7c-1.2,3.1-2.2,6.7-3,10.8l-0.1,0.7c0,0.3-0.2,0.5-0.5,0.7
		c-0.3,0.2-0.8,0.2-1.3,0.2c-0.6,0-0.9,0-1.1-0.1c-0.2-0.1-0.3-0.1-0.3-0.3l0.3-1.4l0.6-3.1l2-10.3c0.2-1.1,0.2-2.1,0.2-3
		c0-2.4-0.7-3.6-2.2-3.6c-1.2,0-2.5,0.8-3.9,2.4c-1.3,1.6-2.6,4-3.8,7s-2.2,6.7-2.9,10.8l-0.1,0.6c-0.1,0.6-0.8,0.9-1.9,0.9
		c-0.6,0-0.9,0-1.1-0.1c-0.2-0.1-0.3-0.1-0.3-0.3c0,0,0.2-0.8,0.5-2.4l0.4-1.8l2.5-13.5c0.1-0.6,0.2-1.1,0.2-1.6
		c0-1.3-0.4-1.9-1.2-1.9c-0.5,0-1.1,0.2-1.8,0.7c-0.7,0.5-1.5,1.1-2.3,2c0,0-0.1,0.1-0.2,0.1c-0.1,0-0.2-0.1-0.3-0.2
		c-0.1-0.1-0.1-0.2,0-0.3c1.3-1.5,2.6-2.7,3.7-3.4s2.2-1.1,3.2-1.1c0.7,0,1.2,0.2,1.5,0.6c0.3,0.4,0.5,1.1,0.5,2
		c0,1-0.1,2.1-0.3,3.1l-1.2,6.7c1.4-3.9,3-7,4.9-9.3c1.9-2.2,3.8-3.3,5.8-3.3c1.2,0,2.1,0.3,2.6,1c0.6,0.7,0.9,1.8,0.9,3.3
		c0,0.9-0.1,2.1-0.4,3.5l-0.9,5.2c1.4-4.1,3-7.3,4.9-9.6c1.9-2.3,3.9-3.4,5.9-3.4c1.2,0,2.1,0.4,2.7,1.1c0.6,0.7,0.9,1.8,0.9,3.4
		c0,0.9-0.1,2.1-0.4,3.4l-1.9,10.5c-0.1,0.6-0.2,1.2-0.2,1.6c0,1.2,0.4,1.8,1.1,1.8c0.9,0,2.2-0.9,3.9-2.7
		C466.9,254,467,254,467,254z"/>
	<path class="st0" d="M494.3,254.1c0.1,0,0.2,0.1,0.3,0.2c0.1,0.1,0.1,0.2,0,0.3c-1.4,1.6-2.6,2.7-3.7,3.5s-2.2,1.1-3.2,1.1
		c-0.7,0-1.2-0.2-1.5-0.6c-0.3-0.4-0.5-1.1-0.5-2c0-1,0.1-2.1,0.3-3.1l1.2-7.2c-1.4,4.1-3.1,7.3-5,9.6c-1.9,2.3-4,3.5-6.1,3.5
		c-2.6,0-3.9-1.5-3.9-4.4c0-1.1,0.1-2.2,0.4-3.4l2.1-10.5c0.1-0.7,0.2-1.2,0.2-1.6c0-1.2-0.4-1.8-1.1-1.8c-0.8,0-2.1,0.9-3.9,2.7
		c-0.1,0.1-0.2,0.1-0.2,0.1c-0.1,0-0.2-0.1-0.3-0.2c-0.1-0.1-0.1-0.3,0.1-0.4c1.4-1.6,2.6-2.7,3.6-3.5c1-0.8,2.1-1.1,3.1-1.1
		c1.4,0,2.1,0.9,2.1,2.7c0,0.6-0.1,1.6-0.4,3.1l-1.9,9.4c-0.3,1.5-0.4,2.6-0.4,3.3c0,2.3,0.8,3.4,2.5,3.4c1.3,0,2.7-0.8,4.1-2.5
		c1.4-1.7,2.7-4.1,4-7.2c1.2-3.2,2.2-6.9,3-11.2c0.1-0.6,0.8-0.9,1.9-0.9c0.9,0,1.4,0.1,1.4,0.4l-0.2,1.4c-0.2,0.9-0.5,2-0.7,3.1
		l-2.4,13.2c-0.1,0.6-0.2,1.1-0.2,1.6c0,1.3,0.4,1.9,1.2,1.9c0.4,0,1-0.2,1.7-0.7c0.7-0.5,1.5-1.1,2.3-2
		C494.1,254.1,494.2,254.1,494.3,254.1z"/>
	<path class="st0" d="M499.6,258.6c-0.3-0.4-0.5-1.1-0.5-2.1c0-0.8,0.1-1.9,0.4-3.1l5.9-31.4c0.1-0.3,0.1-0.8,0.1-1.3
		c0-1-0.4-1.5-1.2-1.5c-0.6,0-1.6,0.3-2.8,0.9h-0.1c-0.2,0-0.3-0.1-0.3-0.3c-0.1-0.2,0-0.3,0.1-0.4l7.6-3.7h0.1
		c0.2,0,0.3,0.1,0.4,0.2c0.1,0.1,0.2,0.2,0.1,0.3l-6.9,37.2c-0.2,0.9-0.2,1.4-0.2,1.7c0,0.6,0.1,1,0.3,1.3c0.2,0.3,0.5,0.4,0.9,0.4
		c0.8,0,2.1-0.9,3.9-2.7c0.1-0.1,0.2-0.1,0.2-0.1c0.1,0,0.2,0.1,0.3,0.2c0.1,0.1,0.1,0.3-0.1,0.4c-1.3,1.6-2.5,2.7-3.6,3.5
		c-1,0.8-2.1,1.1-3.1,1.1C500.5,259.2,499.9,259,499.6,258.6z"/>
	<path class="st0" d="M527.5,236.4c0,0.3-0.2,0.7-0.7,1.2c-0.4,0.5-0.8,0.8-1.2,0.8c-0.2,0-1-0.1-2.3-0.3s-2.7-0.3-4-0.3l-2.6,14.7
		c-0.1,0.6-0.2,1.2-0.2,1.7c0,1,0.2,1.7,0.7,2.2c0.5,0.5,1.2,0.7,2.2,0.7c1,0,2-0.2,2.9-0.7c0.9-0.5,1.8-1.1,2.8-1.9h0.1
		c0.1,0,0.2,0.1,0.4,0.2c0.1,0.1,0.1,0.2,0,0.3c-1.8,1.5-3.3,2.7-4.6,3.3c-1.3,0.7-2.6,1-3.8,1c-1.1,0-2.1-0.3-2.8-0.9
		s-1.1-1.5-1.1-2.8c0-0.2,0-0.7,0.1-1.3l2.5-13.8c0.2-0.8,0.2-1.4,0.2-1.9c0-0.6-0.2-0.9-0.5-1.1c-0.3-0.2-0.9-0.3-1.8-0.3
		c-0.1,0-0.2-0.1-0.2-0.3c0-0.1,0-0.2,0.1-0.3c0.1-0.1,0.1-0.1,0.1-0.1c1.3,0,2.5-0.4,3.5-1.3c1-0.9,1.7-2,2-3.3
		c0.1-0.1,0.3-0.2,0.5-0.2c0.4,0,0.6,0.1,0.5,0.2l-0.8,4.4c1.9-0.1,3.8-0.2,5.5-0.3l2-0.1C527.3,236,527.5,236.1,527.5,236.4z"/>
	<path class="st0" d="M532.2,258.6c-0.4-0.4-0.5-1.1-0.5-2c0-0.6,0.1-1.6,0.4-3.1l2.4-12.3c0.1-0.6,0.2-1.1,0.2-1.6
		c0-1.3-0.4-1.9-1.2-1.9c-0.5,0-1.1,0.2-1.8,0.7c-0.7,0.5-1.5,1.1-2.3,2c0,0-0.1,0.1-0.2,0.1c-0.1,0-0.2-0.1-0.3-0.2
		c-0.1-0.1-0.1-0.2,0-0.3c1.4-1.6,2.6-2.7,3.7-3.5c1.1-0.7,2.2-1.1,3.1-1.1c0.7,0,1.2,0.2,1.6,0.6c0.3,0.4,0.5,1.1,0.5,2
		c0,0.8-0.1,1.8-0.4,3l-2.4,12.4c-0.1,0.6-0.2,1.2-0.2,1.6c0,1.2,0.4,1.8,1.1,1.8c0.9,0,2.3-0.9,4-2.6c0.1-0.1,0.2-0.1,0.2-0.1
		c0.1,0,0.2,0.1,0.3,0.2c0.1,0.1,0.1,0.3-0.1,0.4c-1.3,1.5-2.5,2.7-3.6,3.4s-2.1,1.1-3.1,1.1C533.1,259.2,532.6,259,532.2,258.6z
		 M535.7,227.6c-0.5-0.5-0.7-1.1-0.7-1.9c0-0.8,0.2-1.3,0.7-1.8c0.5-0.4,1.1-0.7,1.9-0.7c0.8,0,1.4,0.2,1.8,0.7s0.7,1,0.7,1.8
		c0,0.8-0.2,1.4-0.7,1.9s-1,0.7-1.8,0.7C536.7,228.3,536.1,228,535.7,227.6z"/>
	<path class="st0" d="M543.7,248.3c-0.1-0.3-0.1-0.7-0.1-1c0-0.8,0.1-1.1,0.2-1.2l14.8-2.7c0.2,0,0.2,0.4,0.2,1.4
		c0,0.8-0.1,1.2-0.2,1.2l-14.7,2.8C543.8,248.8,543.7,248.7,543.7,248.3z"/>
	<path class="st0" d="M562.1,258.2c-1.1-0.7-1.6-1.6-1.4-2.6c0-0.5,0.2-0.9,0.6-1.2c0.4-0.3,0.8-0.4,1.2-0.4c0.4,0,0.6,0.1,0.9,0.4
		c0.2,0.2,0.5,0.6,0.8,1.2c0.5,0.8,1,1.4,1.5,1.8c0.5,0.4,1.2,0.7,2.2,0.7c2.2,0,3.4-1.2,3.8-3.6c0-0.2,0.1-0.5,0.1-0.8
		c0-1.1-0.3-2.1-0.9-3c-0.6-0.8-1.6-1.8-3-2.9c-1.3-1.1-2.3-2-2.9-2.8c-0.7-0.8-1-1.8-1-2.9c0-0.2,0-0.5,0.1-1
		c0.4-1.8,1.3-3.2,2.8-4.2c1.5-1,3.2-1.6,5.1-1.6c1.3,0,2.5,0.3,3.4,0.8c0.9,0.5,1.4,1.2,1.4,2c0,0.6-0.2,1-0.6,1.4
		c-0.4,0.3-0.8,0.5-1.3,0.5c-0.4,0-0.8-0.1-1.1-0.4c-0.3-0.2-0.6-0.6-1-1.1c-0.4-0.6-0.9-1.1-1.3-1.4c-0.4-0.3-1-0.4-1.7-0.4
		c-0.9,0-1.7,0.3-2.3,0.8s-0.9,1.3-0.9,2.3c0,1.1,0.3,2,1,2.9c0.7,0.8,1.6,1.8,2.9,2.9c1.4,1.2,2.4,2.3,3.1,3.1c0.7,0.8,1,1.9,1,3.1
		c0,1.3-0.4,2.5-1.1,3.7c-0.8,1.2-1.8,2.2-3.1,2.9c-1.3,0.7-2.7,1.1-4.2,1.1C564.5,259.3,563.2,258.9,562.1,258.2z"/>
	<path class="st0" d="M602,254.1c0.2,0,0.3,0.1,0.4,0.2c0.1,0.1,0.1,0.2,0,0.3c-2.6,3-4.7,4.5-6.3,4.5c-0.9,0-1.7-0.3-2.3-0.8
		c-0.7-0.6-1.4-1.6-2.3-3.1l-3.4-6c-0.4-0.6-0.7-1-0.9-1.2c-0.3-0.2-0.6-0.4-1.1-0.4l-0.5,0.1l-1.9,10.5c-0.1,0.3-0.3,0.5-0.6,0.7
		c-0.3,0.2-0.8,0.2-1.3,0.2c-0.9,0-1.4-0.1-1.4-0.4l0.2-1.4c0.2-0.9,0.5-2,0.7-3.1l6-32.3c0.1-0.6,0.1-1,0.1-1.2
		c0-1-0.4-1.5-1.3-1.5c-0.6,0-1.6,0.3-2.8,0.9H583c-0.2,0-0.3-0.1-0.3-0.3s0-0.3,0.1-0.4l7.6-3.7h0.1c0.2,0,0.3,0.1,0.4,0.2
		s0.2,0.2,0.1,0.3l-4.4,24.2c1.5-1.7,3.1-3,4.9-3.9c1.8-1,3.6-1.5,5.5-1.5c1.1,0,2,0.3,2.5,0.9c0.5,0.6,0.8,1.2,0.8,2
		c0,0.4,0,0.6-0.1,0.7c-0.3,1.4-1.3,2.8-3.1,4.2c-1.8,1.4-4.2,2.6-7.1,3.6l4,6.9c0.8,1.3,1.5,2.3,2,2.7c0.6,0.5,1.2,0.7,1.8,0.7
		c1,0,2.3-0.8,3.9-2.4C601.9,254.2,602,254.1,602,254.1z M589.1,239.4c-1.6,1.7-2.8,4.1-3.4,7l-0.1,0.5c3.6-0.8,6.1-1.8,7.7-2.8
		s2.6-2.5,2.9-4.4c0.1-0.4,0.1-0.7,0.1-0.8c0-0.6-0.2-1.1-0.5-1.5c-0.3-0.4-0.8-0.5-1.3-0.5C592.6,236.8,590.7,237.7,589.1,239.4z"
		/>
	<path class="st0" d="M607.5,258.6c-0.4-0.4-0.5-1.1-0.5-2c0-0.6,0.1-1.6,0.4-3.1l2.4-12.3c0.1-0.6,0.2-1.1,0.2-1.6
		c0-1.3-0.4-1.9-1.2-1.9c-0.5,0-1.1,0.2-1.8,0.7c-0.7,0.5-1.5,1.1-2.3,2c0,0-0.1,0.1-0.2,0.1c-0.1,0-0.2-0.1-0.3-0.2
		c-0.1-0.1-0.1-0.2,0-0.3c1.4-1.6,2.6-2.7,3.7-3.5c1.1-0.7,2.2-1.1,3.1-1.1c0.7,0,1.2,0.2,1.6,0.6c0.3,0.4,0.5,1.1,0.5,2
		c0,0.8-0.1,1.8-0.4,3l-2.4,12.4c-0.1,0.6-0.2,1.2-0.2,1.6c0,1.2,0.4,1.8,1.1,1.8c0.9,0,2.3-0.9,4-2.6c0.1-0.1,0.2-0.1,0.2-0.1
		c0.1,0,0.2,0.1,0.3,0.2c0.1,0.1,0.1,0.3-0.1,0.4c-1.3,1.5-2.5,2.7-3.6,3.4s-2.1,1.1-3.1,1.1C608.4,259.2,607.8,259,607.5,258.6z
		 M611,227.6c-0.5-0.5-0.7-1.1-0.7-1.9c0-0.8,0.2-1.3,0.7-1.8c0.5-0.4,1.1-0.7,1.9-0.7c0.8,0,1.4,0.2,1.8,0.7s0.7,1,0.7,1.8
		c0,0.8-0.2,1.4-0.7,1.9s-1,0.7-1.8,0.7C612,228.3,611.4,228,611,227.6z"/>
	<path class="st0" d="M621,258.6c-0.3-0.4-0.5-1.1-0.5-2.1c0-0.8,0.1-1.9,0.4-3.1l5.9-31.4c0.1-0.3,0.1-0.8,0.1-1.3
		c0-1-0.4-1.5-1.2-1.5c-0.6,0-1.6,0.3-2.8,0.9h-0.1c-0.2,0-0.3-0.1-0.3-0.3c-0.1-0.2,0-0.3,0.1-0.4l7.6-3.7h0.1
		c0.2,0,0.3,0.1,0.4,0.2c0.1,0.1,0.2,0.2,0.1,0.3l-6.9,37.2c-0.2,0.9-0.2,1.4-0.2,1.7c0,0.6,0.1,1,0.3,1.3c0.2,0.3,0.5,0.4,0.9,0.4
		c0.8,0,2.1-0.9,3.9-2.7c0.1-0.1,0.2-0.1,0.2-0.1c0.1,0,0.2,0.1,0.3,0.2c0.1,0.1,0.1,0.3-0.1,0.4c-1.3,1.6-2.5,2.7-3.6,3.5
		c-1,0.8-2.1,1.1-3.1,1.1C621.9,259.2,621.4,259,621,258.6z"/>
	<path class="st0" d="M635.1,258.6c-0.3-0.4-0.5-1.1-0.5-2.1c0-0.8,0.1-1.9,0.4-3.1l5.9-31.4c0.1-0.3,0.1-0.8,0.1-1.3
		c0-1-0.4-1.5-1.2-1.5c-0.6,0-1.6,0.3-2.8,0.9h-0.1c-0.2,0-0.3-0.1-0.3-0.3c-0.1-0.2,0-0.3,0.1-0.4l7.6-3.7h0.1
		c0.2,0,0.3,0.1,0.4,0.2c0.1,0.1,0.2,0.2,0.1,0.3l-6.9,37.2c-0.2,0.9-0.2,1.4-0.2,1.7c0,0.6,0.1,1,0.3,1.3c0.2,0.3,0.5,0.4,0.9,0.4
		c0.8,0,2.1-0.9,3.9-2.7c0.1-0.1,0.2-0.1,0.2-0.1c0.1,0,0.2,0.1,0.3,0.2c0.1,0.1,0.1,0.3-0.1,0.4c-1.3,1.6-2.5,2.7-3.6,3.5
		c-1,0.8-2.1,1.1-3.1,1.1C635.9,259.2,635.4,259,635.1,258.6z"/>
	<path class="st0" d="M662.9,241.2c-1.3,1.1-3,2.1-5.2,2.9s-4.5,1.4-7,1.8c-0.2,1.3-0.3,2.3-0.3,3.3c0,2.4,0.6,4.4,1.7,5.9
		c1.1,1.5,2.7,2.2,4.7,2.2c2.2,0,4.2-0.7,5.9-2h0.1c0.1,0,0.2,0.1,0.3,0.2c0.1,0.1,0.1,0.2,0,0.4c-2.8,2.3-5.6,3.4-8.6,3.4
		c-2.5,0-4.4-0.8-5.7-2.4s-1.9-3.7-1.9-6.2c0-0.9,0.1-1.9,0.3-3.1c0.4-2,1.2-4,2.5-6c1.3-2,2.9-3.6,4.9-4.8c2-1.3,4-1.9,6.1-1.9
		c1.3,0,2.3,0.2,3,0.7c0.7,0.5,1.1,1.1,1.1,2C664.8,238.9,664.2,240.1,662.9,241.2z M653.5,239c-1.2,1.6-2.1,3.6-2.6,6.1
		c2.8-0.5,5-1.2,6.7-2.1c1.7-0.9,2.8-2.1,3.1-3.6c0.1-0.4,0.1-0.7,0.1-0.8c0-0.7-0.3-1.2-0.8-1.5c-0.6-0.3-1.2-0.5-2-0.5
		C656.3,236.6,654.8,237.4,653.5,239z"/>
	<path class="st0" d="M685.3,253.4c-0.1,0.6-0.2,1.1-0.2,1.5c0,1.3,0.4,1.9,1.2,1.9s2.1-0.9,3.9-2.7c0.1-0.1,0.1-0.1,0.2-0.1
		c0.1,0,0.2,0.1,0.3,0.2c0.1,0.1,0.1,0.3,0,0.4c-1.4,1.6-2.6,2.7-3.7,3.5c-1,0.8-2,1.1-3,1.1c-1.4,0-2.1-0.9-2.1-2.6
		c0-0.6,0.1-1.7,0.4-3.2l1.1-5.9c-1.8,3.7-3.7,6.6-5.8,8.7c-2,2.1-4.1,3.2-6.2,3.2c-1.4,0-2.6-0.5-3.5-1.4s-1.4-2.4-1.4-4.4
		c0-0.4,0.1-1.2,0.2-2.4c0.5-2.8,1.6-5.5,3.2-8c1.6-2.5,3.6-4.5,5.9-6c2.3-1.5,4.5-2.2,6.8-2.2c1.1,0,2.1,0.3,2.8,0.8l2.6-13.8
		c0.1-0.6,0.1-1,0.1-1.2c0-1-0.4-1.5-1.3-1.5c-0.6,0-1.6,0.3-2.9,0.9H684c-0.1,0-0.2-0.1-0.3-0.3c-0.1-0.2,0-0.3,0.1-0.4l7.7-3.7
		h0.1c0.1,0,0.2,0.1,0.4,0.2c0.1,0.1,0.2,0.2,0.1,0.3L685.3,253.4z M678.7,253.6c1.7-1.9,3.1-4.2,4.2-6.8s1.7-4.6,1.7-6
		c0-1.2-0.4-2.2-1.1-2.8c-0.7-0.7-1.7-1-2.9-1c-2.6,0.1-4.8,1.1-6.7,3.1c-1.9,2-3.1,4.9-3.8,8.6c-0.2,0.9-0.2,1.8-0.2,2.7
		c0,1.7,0.3,2.9,0.9,3.8c0.6,0.8,1.5,1.3,2.6,1.3C675.2,256.5,676.9,255.6,678.7,253.6z"/>
	<path class="st0" d="M709.1,256.8c-1.2-1.8-1.9-3.9-1.9-6.5c0-1.3,0.1-2.4,0.4-3.6c0.5-2.4,1.4-4.4,2.7-6.2s2.9-3.1,4.7-4.1
		c1.8-0.9,3.5-1.4,5.3-1.4c1.5,0,2.7,0.3,3.7,1c1,0.7,1.5,1.5,1.4,2.5c0,0.6-0.2,1-0.6,1.4c-0.3,0.4-0.8,0.5-1.4,0.5
		c-1,0-1.7-0.6-2.1-1.9c-0.2-0.6-0.5-1.1-1-1.5c-0.5-0.5-1.2-0.7-2.1-0.7c-1.9,0-3.4,0.8-4.5,2.4c-1.2,1.6-2,3.6-2.5,6.2
		c-0.3,1.6-0.4,2.9-0.4,3.9c0,2.5,0.6,4.6,1.7,6.2s2.7,2.4,4.9,2.4c2,0,4.1-0.9,6.3-2.7l0.1-0.1c0.1,0,0.2,0.1,0.3,0.2
		c0.1,0.2,0.1,0.3,0,0.4c-3.2,2.8-6.2,4.2-9.2,4.2C712.2,259.4,710.3,258.5,709.1,256.8z"/>
	<path class="st0" d="M745.2,236.1c0.7,0.6,1.1,1.2,1.1,2c0,0.6-0.2,1.1-0.6,1.5c-0.4,0.4-0.8,0.6-1.4,0.6c-0.4,0-0.8-0.1-1-0.3
		c-0.3-0.2-0.5-0.5-0.8-0.9c-0.2-0.2-0.3-0.4-0.5-0.6c-0.2-0.2-0.4-0.3-0.7-0.3c-0.9,0-1.9,1.1-3.1,3.4c-1.2,2.3-2.3,5-3.4,8.2
		s-1.8,6-2.3,8.5c0,0.3-0.2,0.5-0.6,0.7c-0.3,0.2-0.8,0.2-1.3,0.2c-0.5,0-0.9,0-1-0.1c-0.2-0.1-0.3-0.1-0.3-0.3l0.3-1.4l0.6-3.1
		l2-11c0.2-1.3,0.4-2.3,0.4-3.1c0-1.8-0.5-2.7-1.4-2.7c-0.9,0-2.1,0.7-3.6,2.2l-0.1,0.1c-0.1,0-0.2-0.1-0.3-0.2
		c-0.1-0.1-0.1-0.2-0.1-0.3c1.2-1.3,2.3-2.3,3.4-3c1-0.7,2-1,3-1c0.8,0,1.4,0.3,1.7,0.8c0.4,0.5,0.6,1.4,0.6,2.7
		c0,1-0.2,2.5-0.5,4.5l-1.2,6.8c1.3-4.1,2.8-7.6,4.4-10.5c1.6-2.8,3.1-4.2,4.7-4.2C743.8,235.3,744.5,235.5,745.2,236.1z"/>
	<path class="st0" d="M762.5,241.2c-1.3,1.1-3,2.1-5.2,2.9s-4.5,1.4-7,1.8c-0.2,1.3-0.3,2.3-0.3,3.3c0,2.4,0.6,4.4,1.7,5.9
		c1.1,1.5,2.7,2.2,4.7,2.2c2.2,0,4.2-0.7,5.9-2h0.1c0.1,0,0.2,0.1,0.3,0.2c0.1,0.1,0.1,0.2,0,0.4c-2.8,2.3-5.6,3.4-8.6,3.4
		c-2.5,0-4.4-0.8-5.7-2.4s-1.9-3.7-1.9-6.2c0-0.9,0.1-1.9,0.3-3.1c0.4-2,1.2-4,2.5-6c1.3-2,2.9-3.6,4.9-4.8c2-1.3,4-1.9,6.1-1.9
		c1.3,0,2.3,0.2,3,0.7c0.7,0.5,1.1,1.1,1.1,2C764.5,238.9,763.8,240.1,762.5,241.2z M753.2,239c-1.2,1.6-2.1,3.6-2.6,6.1
		c2.8-0.5,5-1.2,6.7-2.1c1.7-0.9,2.8-2.1,3.1-3.6c0.1-0.4,0.1-0.7,0.1-0.8c0-0.7-0.3-1.2-0.8-1.5c-0.6-0.3-1.2-0.5-2-0.5
		C756,236.6,754.4,237.4,753.2,239z"/>
	<path class="st0" d="M789.3,254c0.1,0,0.2,0.1,0.3,0.2c0.1,0.1,0.1,0.2,0,0.3c-1.3,1.5-2.5,2.7-3.6,3.5c-1,0.8-2.1,1.2-3.1,1.2
		c-0.7,0-1.2-0.2-1.5-0.6c-0.3-0.4-0.5-1.1-0.5-2c0-0.8,0.1-1.8,0.4-3.1l1.1-6.2c-1.8,3.7-3.9,6.6-6.1,8.9c-2.3,2.2-4.5,3.3-6.5,3.3
		c-2.4,0-3.7-1.5-3.7-4.4c0-0.3,0-0.9,0.1-1.8c0.4-2.8,1.4-5.6,3.1-8.5c1.7-2.8,3.7-5.2,6-7c2.3-1.8,4.4-2.8,6.5-2.8
		c0.7,0,1.5,0.1,2.2,0.4c0.7,0.3,1.3,0.7,1.7,1.2c0.7-0.6,1.2-1.3,1.4-2.1c0-0.1,0.2-0.2,0.4-0.1c0.2,0,0.3,0.1,0.3,0.2l-3.4,18.8
		c-0.1,0.6-0.2,1.1-0.2,1.6c0,1.2,0.4,1.8,1.1,1.8c0.9,0,2.2-0.9,3.9-2.7C789.2,254.1,789.3,254,789.3,254z M776.4,254.3
		c1.6-1.5,3-3.3,4.3-5.5c1.3-2.2,2.1-4.4,2.5-6.5c0.1-0.5,0.2-1,0.1-1.4c0-1.2-0.3-2.1-0.9-2.8c-0.6-0.7-1.5-1-2.8-1
		c-1.4,0-2.8,0.7-4.2,1.9c-1.4,1.2-2.7,2.8-3.8,4.9s-1.8,4.3-2.1,6.8c-0.1,0.9-0.2,1.7-0.2,2.4c0,2.4,0.8,3.6,2.5,3.6
		C773.3,256.5,774.8,255.8,776.4,254.3z"/>
	<path class="st0" d="M808.2,236.4c0,0.3-0.2,0.7-0.7,1.2c-0.4,0.5-0.8,0.8-1.2,0.8c-0.2,0-1-0.1-2.3-0.3s-2.7-0.3-4-0.3l-2.6,14.7
		c-0.1,0.6-0.2,1.2-0.2,1.7c0,1,0.2,1.7,0.7,2.2c0.5,0.5,1.2,0.7,2.2,0.7c1,0,2-0.2,2.9-0.7c0.9-0.5,1.8-1.1,2.8-1.9h0.1
		c0.1,0,0.2,0.1,0.4,0.2c0.1,0.1,0.1,0.2,0,0.3c-1.8,1.5-3.3,2.7-4.6,3.3c-1.3,0.7-2.6,1-3.8,1c-1.1,0-2.1-0.3-2.8-0.9
		s-1.1-1.5-1.1-2.8c0-0.2,0-0.7,0.1-1.3l2.5-13.8c0.2-0.8,0.2-1.4,0.2-1.9c0-0.6-0.2-0.9-0.5-1.1c-0.3-0.2-0.9-0.3-1.8-0.3
		c-0.1,0-0.2-0.1-0.2-0.3c0-0.1,0-0.2,0.1-0.3c0.1-0.1,0.1-0.1,0.1-0.1c1.3,0,2.5-0.4,3.5-1.3c1-0.9,1.7-2,2-3.3
		c0.1-0.1,0.3-0.2,0.5-0.2c0.4,0,0.6,0.1,0.5,0.2l-0.8,4.4c1.9-0.1,3.8-0.2,5.5-0.3l2-0.1C808.1,236,808.2,236.1,808.2,236.4z"/>
	<path class="st0" d="M813,258.6c-0.4-0.4-0.5-1.1-0.5-2c0-0.6,0.1-1.6,0.4-3.1l2.4-12.3c0.1-0.6,0.2-1.1,0.2-1.6
		c0-1.3-0.4-1.9-1.2-1.9c-0.5,0-1.1,0.2-1.8,0.7c-0.7,0.5-1.5,1.1-2.3,2c0,0-0.1,0.1-0.2,0.1c-0.1,0-0.2-0.1-0.3-0.2
		c-0.1-0.1-0.1-0.2,0-0.3c1.4-1.6,2.6-2.7,3.7-3.5c1.1-0.7,2.2-1.1,3.1-1.1c0.7,0,1.2,0.2,1.6,0.6c0.3,0.4,0.5,1.1,0.5,2
		c0,0.8-0.1,1.8-0.4,3l-2.4,12.4c-0.1,0.6-0.2,1.2-0.2,1.6c0,1.2,0.4,1.8,1.1,1.8c0.9,0,2.3-0.9,4-2.6c0.1-0.1,0.2-0.1,0.2-0.1
		c0.1,0,0.2,0.1,0.3,0.2c0.1,0.1,0.1,0.3-0.1,0.4c-1.3,1.5-2.5,2.7-3.6,3.4s-2.1,1.1-3.1,1.1C813.9,259.2,813.3,259,813,258.6z
		 M816.4,227.6c-0.5-0.5-0.7-1.1-0.7-1.9c0-0.8,0.2-1.3,0.7-1.8c0.5-0.4,1.1-0.7,1.9-0.7c0.8,0,1.4,0.2,1.8,0.7s0.7,1,0.7,1.8
		c0,0.8-0.2,1.4-0.7,1.9s-1,0.7-1.8,0.7C817.5,228.3,816.9,228,816.4,227.6z"/>
	<path class="st0" d="M829.7,257.4c-0.9-1.3-1.4-3-1.4-4.9c0-1.3,0.3-2.7,0.8-4.1c0.5-1.4,1.3-3.2,2.3-5.3l1.3-2.8
		c0.2-0.3,0.2-0.6,0.2-0.9c0-0.4-0.3-0.6-0.8-0.6h-3c-1.1,0-1.8,0.1-2.3,0.2c-0.5,0.1-0.9,0.4-1.2,0.8c-0.3,0.4-0.6,1.1-0.9,2
		c0,0.1-0.2,0.2-0.4,0.2c-0.1,0-0.2,0-0.3-0.1s-0.1-0.2,0-0.3c0.6-1.8,1.2-3.1,1.6-3.9s0.9-1.3,1.5-1.6c0.6-0.3,1.5-0.4,2.8-0.4h5.3
		c0.4,0,0.7,0.1,0.7,0.2c0,0.1-0.1,0.2-0.2,0.5c-1.2,2.8-2.3,5.5-3.1,8.1c-0.8,2.6-1.2,4.8-1.2,6.5c0,1.7,0.4,3,1.1,4
		c0.7,1,1.7,1.5,3,1.5c1.8,0,3.5-0.9,5.2-2.6c1.7-1.7,2.8-4,3.6-6.8c0.4-1.4,0.5-2.5,0.5-3.4c0-1.1-0.2-2-0.5-2.6
		c-0.3-0.6-0.8-1.1-1.3-1.6c-0.4-0.4-0.8-0.8-1-1.1c-0.3-0.3-0.4-0.7-0.4-1.2c0-0.7,0.2-1.2,0.7-1.5c0.5-0.3,1-0.5,1.6-0.5
		c0.9,0,1.6,0.5,2,1.5c0.4,1,0.7,2.4,0.7,4c0,1.3-0.1,2.4-0.2,3.4c-0.4,3-1.3,5.6-2.7,7.9c-1.4,2.3-2.9,4.1-4.7,5.4
		s-3.5,1.9-5.1,1.9C832,259.4,830.7,258.7,829.7,257.4z"/>
	<path class="st0" d="M865.9,241.2c-1.3,1.1-3,2.1-5.2,2.9s-4.5,1.4-7,1.8c-0.2,1.3-0.3,2.3-0.3,3.3c0,2.4,0.6,4.4,1.7,5.9
		c1.1,1.5,2.7,2.2,4.7,2.2c2.2,0,4.2-0.7,5.9-2h0.1c0.1,0,0.2,0.1,0.3,0.2c0.1,0.1,0.1,0.2,0,0.4c-2.8,2.3-5.6,3.4-8.6,3.4
		c-2.5,0-4.4-0.8-5.7-2.4s-1.9-3.7-1.9-6.2c0-0.9,0.1-1.9,0.3-3.1c0.4-2,1.2-4,2.5-6c1.3-2,2.9-3.6,4.9-4.8c2-1.3,4-1.9,6.1-1.9
		c1.3,0,2.3,0.2,3,0.7c0.7,0.5,1.1,1.1,1.1,2C867.8,238.9,867.2,240.1,865.9,241.2z M856.6,239c-1.2,1.6-2.1,3.6-2.6,6.1
		c2.8-0.5,5-1.2,6.7-2.1c1.7-0.9,2.8-2.1,3.1-3.6c0.1-0.4,0.1-0.7,0.1-0.8c0-0.7-0.3-1.2-0.8-1.5c-0.6-0.3-1.2-0.5-2-0.5
		C859.3,236.6,857.8,237.4,856.6,239z"/>
</g>
<g>
	<path class="st0" d="M548,365.4l-2.2-9.1h-6.1l-2.2,9.1h-1.7l6-25h1.7l6.2,25H548z M545.4,354.7l-2.2-9.3c-0.2-1-0.4-2-0.5-3
		c-0.1,1-0.3,2-0.5,3l-2.1,9.3H545.4z"/>
	<path class="st0" d="M571.9,365.4h-2.1l-9.5-22.4h-0.1c0.1,1.5,0.2,3,0.2,4.5v17.9h-1.6v-25h2.2l9.4,22.1h0.1
		c-0.1-1.9-0.1-3.4-0.1-4.7v-17.5h1.6v25.1H571.9z"/>
	<path class="st0" d="M583.6,365.4v-25h1.7v25H583.6z"/>
	<path class="st0" d="M605.3,365.4l-6.6-22.7h-0.1c0.1,2.4,0.2,3.9,0.2,4.5v18.2h-1.6v-25h2.5l5.6,19.1c0.5,1.7,0.8,3.1,1,4.3h0.1
		c0.1-0.8,0.5-2.3,1.1-4.3l5.6-19.1h2.6v25H614v-18.1c0-0.7,0.1-2.3,0.2-4.6h-0.1l-6.6,22.7H605.3z"/>
	<path class="st0" d="M636.7,365.4l-2.2-9.1h-6.1l-2.2,9.1h-1.7l6-25h1.7l6.2,25H636.7z M634.1,354.7l-2.2-9.3c-0.2-1-0.4-2-0.5-3
		c-0.1,1-0.3,2-0.5,3l-2.1,9.3H634.1z"/>
	<path class="st0" d="M651.6,365.4h-1.7V342h-5v-1.6h11.6v1.6h-5v23.4H651.6z"/>
	<path class="st0" d="M665.9,365.4v-25h1.7v25H665.9z"/>
	<path class="st0" d="M692.9,352.9c0,4.1-0.6,7.3-1.9,9.5s-3,3.3-5.4,3.3s-4.1-1.1-5.4-3.4c-1.2-2.2-1.8-5.4-1.8-9.5
		c0-4.3,0.6-7.5,1.8-9.6s3-3.2,5.4-3.2c2.3,0,4.1,1.1,5.3,3.3C692.3,345.6,692.9,348.8,692.9,352.9z M680.2,352.9
		c0,3.7,0.5,6.5,1.4,8.4s2.3,2.8,4.1,2.8s3.1-0.9,4.1-2.8c0.9-1.9,1.4-4.7,1.4-8.4c0-3.7-0.5-6.5-1.4-8.4s-2.3-2.8-4.1-2.8
		s-3.2,1-4.1,2.9S680.2,349.3,680.2,352.9z"/>
	<path class="st0" d="M717,365.4h-2.1l-9.5-22.4h-0.1c0.1,1.5,0.2,3,0.2,4.5v17.9h-1.6v-25h2.2l9.4,22.1h0.1
		c-0.1-1.9-0.1-3.4-0.1-4.7v-17.5h1.6v25.1H717z"/>
	<path class="st0" d="M728.3,348.7c0-1.2,0.4-1.8,1.3-1.8s1.3,0.6,1.3,1.8c0,0.6-0.1,1.1-0.4,1.4c-0.3,0.3-0.6,0.4-0.9,0.4
		C728.7,350.5,728.3,349.9,728.3,348.7z M728.3,363.9c0-1.2,0.4-1.8,1.3-1.8c0.4,0,0.7,0.1,0.9,0.4c0.3,0.3,0.4,0.7,0.4,1.4
		c0,0.6-0.1,1.1-0.4,1.4c-0.3,0.3-0.6,0.4-0.9,0.4C728.7,365.7,728.3,365.1,728.3,363.9z"/>
</g>
<g>
	<path class="st0" d="M549.3,474.8c-3.4-1.9-6-4.5-7.9-7.8s-2.9-7-2.9-11.1s1-7.8,2.9-11s4.6-5.8,7.9-7.6c3.4-1.8,7.2-2.7,11.5-2.7
		s8.1,0.9,11.5,2.8c3.3,1.8,5.9,4.4,7.8,7.7c1.8,3.3,2.8,7,2.8,11.1s-0.9,7.8-2.8,11.1c-1.9,3.3-4.5,5.8-7.8,7.7
		c-3.3,1.8-7.1,2.8-11.4,2.8C556.5,477.6,552.7,476.6,549.3,474.8z M569.2,470.7c1.6-3.1,2.5-7.5,2.5-13.2c0-7-1.1-12.3-3.3-15.7
		s-5-5.1-8.3-5.1s-5.8,1.6-7.6,4.9c-1.8,3.2-2.7,7.6-2.7,13.1c0,6.2,1.1,11.2,3.3,15s5.2,5.7,8.9,5.7
		C565.1,475.4,567.5,473.8,569.2,470.7z"/>
	<path class="st0" d="M631.5,450.1c2.3,2.7,3.4,5.8,3.4,9.5c0,3.3-1,6.3-2.9,9c-2,2.8-4.6,4.9-8,6.5s-7.1,2.4-11,2.4
		c-6.2,0-11.1-2-14.7-6.1c-3.6-4.1-5.4-9.7-5.4-16.9c0-6.5,1.5-13,4.6-19.3s7.5-11.9,13.2-16.9c5.7-4.9,12.5-8.7,20.1-11.3
		c0.3-0.1,0.5,0.1,0.6,0.4s0.1,0.6-0.1,0.7c-6,3-11.1,6.9-15.3,11.8c-4.2,4.8-7.3,10.1-9.4,15.8c-2.1,5.7-3.1,11.5-3.1,17.2
		c0,4,0.5,7.7,1.5,11.1c1,3.3,2.5,6,4.3,7.9c1.9,2,4,2.9,6.5,2.9c2.6,0,4.6-1.1,6.2-3.3s2.3-5.2,2.3-9.1c0-3.7-0.7-6.6-2.2-8.8
		s-3.6-3.3-6.5-3.3c-1.3,0-2.4,0.2-3.6,0.7c-1.1,0.5-2.4,1.2-3.9,2.2c-0.1,0.1-0.2,0.1-0.3,0.1c-0.2,0-0.4-0.1-0.6-0.3
		s-0.3-0.4-0.2-0.5c4-4.4,8.8-6.6,14.2-6.6C625.8,446.1,629.2,447.5,631.5,450.1z"/>
	<path class="st0" d="M647.2,475.6c-1.1-1.1-1.7-2.7-1.7-4.7c0-1.8,0.6-3.3,1.7-4.4c1.1-1.1,2.7-1.7,4.7-1.7c1.9,0,3.5,0.5,4.5,1.6
		c1.1,1.1,1.6,2.6,1.6,4.4c0,2-0.5,3.6-1.6,4.7s-2.6,1.7-4.5,1.7C649.9,477.4,648.4,476.8,647.2,475.6z"/>
	<path class="st0" d="M677.8,439.6c-0.3-1-1.1-1.6-2.2-2c-1.1-0.3-2.9-0.5-5.3-0.5c-0.1,0-0.2-0.2-0.2-0.6s0.1-0.6,0.2-0.6
		c2.3,0,4.1,0,5.3,0.1l7.6,0.1l7.5-0.1c1.3-0.1,3.1-0.1,5.4-0.1c0.2,0,0.3,0.2,0.3,0.6s-0.1,0.6-0.3,0.6c-2.3,0-4,0.2-5.1,0.6
		s-1.9,1.1-2.3,2c-0.4,1-0.6,2.5-0.6,4.6v23.4c0,2.2,0.2,3.7,0.5,4.7s1.1,1.6,2.2,2c1.1,0.3,2.9,0.5,5.3,0.5c0.2,0,0.3,0.2,0.3,0.6
		s-0.1,0.6-0.3,0.6c-2.3,0-4.1,0-5.3-0.1l-7.6-0.1l-7.5,0.1c-1.3,0.1-3.1,0.1-5.4,0.1c-0.1,0-0.2-0.2-0.2-0.6s0.1-0.6,0.2-0.6
		c2.3,0,4-0.2,5.1-0.6s1.9-1.1,2.3-2c0.4-1,0.6-2.5,0.6-4.6v-23.4C678.3,442.2,678.1,440.6,677.8,439.6z"/>
	<path class="st0" d="M721,460.8c2.8-2.8,4.8-5.2,5.9-7.3c1.1-2,1.7-4.1,1.7-6.2c0-2.6-0.7-4.8-2-6.7c-1.3-1.9-3.2-2.9-5.6-2.9
		c-2.6,0-4.7,1.1-6.3,3.4s-3.3,5.8-5,10.5c0,0.1-0.1,0.1-0.4,0.1c-0.6,0-0.9-0.1-0.8-0.3l4.6-17.9c0-0.1,0.1-0.2,0.4-0.2
		c0.2,0,0.4,0.1,0.6,0.2c0.2,0.1,0.2,0.2,0.2,0.3c-0.1,0.3-0.1,0.8-0.1,1.3c0,1.2,0.5,1.8,1.6,1.8c0.6,0,1.7-0.2,3.1-0.7
		c3-1,5.7-1.6,8.3-1.6c3.8,0,6.8,0.9,9,2.7c2.2,1.8,3.2,4.2,3.2,7.2c0,3.6-1.4,6.9-4.2,9.9s-6.7,6.2-11.7,9.7l-4.2,3.1
		c-0.2,0.2-0.3,0.4-0.2,0.5s0.3,0.2,0.7,0.2c5.6,0,9.8-0.1,12.6-0.3s5-0.7,6.7-1.4c1.6-0.7,2.7-1.9,3.2-3.5c0.1-0.2,0.3-0.3,0.7-0.3
		s0.6,0.1,0.6,0.3l-2.2,12.4c0,0.3-0.1,0.5-0.3,0.8c-0.2,0.2-0.4,0.4-0.7,0.4h-32c-0.3,0-0.5-0.2-0.7-0.6s-0.3-0.8-0.3-1.3
		s0.1-0.7,0.3-0.9C713.8,467.8,718.2,463.6,721,460.8z"/>
	<path class="st0" d="M755.6,475.6c-1.1-1.1-1.7-2.7-1.7-4.7c0-1.8,0.6-3.3,1.7-4.4c1.1-1.1,2.7-1.7,4.7-1.7c1.9,0,3.5,0.5,4.5,1.6
		c1.1,1.1,1.6,2.6,1.6,4.4c0,2-0.5,3.6-1.6,4.7s-2.6,1.7-4.5,1.7C758.3,477.4,756.7,476.8,755.6,475.6z"/>
	<path class="st0" d="M791.3,460.8c2.8-2.8,4.8-5.2,5.9-7.3c1.1-2,1.7-4.1,1.7-6.2c0-2.6-0.7-4.8-2-6.7c-1.3-1.9-3.2-2.9-5.6-2.9
		c-2.6,0-4.7,1.1-6.3,3.4s-3.3,5.8-5,10.5c0,0.1-0.1,0.1-0.4,0.1c-0.6,0-0.9-0.1-0.8-0.3l4.6-17.9c0-0.1,0.1-0.2,0.4-0.2
		c0.2,0,0.4,0.1,0.6,0.2c0.2,0.1,0.2,0.2,0.2,0.3c-0.1,0.3-0.1,0.8-0.1,1.3c0,1.2,0.5,1.8,1.6,1.8c0.6,0,1.7-0.2,3.1-0.7
		c3-1,5.7-1.6,8.3-1.6c3.8,0,6.8,0.9,9,2.7c2.2,1.8,3.2,4.2,3.2,7.2c0,3.6-1.4,6.9-4.2,9.9s-6.7,6.2-11.7,9.7l-4.2,3.1
		c-0.2,0.2-0.3,0.4-0.2,0.5s0.3,0.2,0.7,0.2c5.6,0,9.8-0.1,12.6-0.3s5-0.7,6.7-1.4c1.6-0.7,2.7-1.9,3.2-3.5c0.1-0.2,0.3-0.3,0.7-0.3
		s0.6,0.1,0.6,0.3l-2.2,12.4c0,0.3-0.1,0.5-0.3,0.8c-0.2,0.2-0.4,0.4-0.7,0.4h-32c-0.3,0-0.5-0.2-0.7-0.6s-0.3-0.8-0.3-1.3
		s0.1-0.7,0.3-0.9C784.1,467.8,788.6,463.6,791.3,460.8z"/>
	<path class="st0" d="M833.1,474.8c-3.4-1.9-6-4.5-7.9-7.8s-2.9-7-2.9-11.1s1-7.8,2.9-11s4.6-5.8,7.9-7.6c3.4-1.8,7.2-2.7,11.5-2.7
		s8.1,0.9,11.5,2.8c3.3,1.8,5.9,4.4,7.8,7.7c1.8,3.3,2.8,7,2.8,11.1s-0.9,7.8-2.8,11.1c-1.9,3.3-4.5,5.8-7.8,7.7
		c-3.3,1.8-7.1,2.8-11.4,2.8C840.3,477.6,836.5,476.6,833.1,474.8z M852.9,470.7c1.6-3.1,2.5-7.5,2.5-13.2c0-7-1.1-12.3-3.3-15.7
		s-5-5.1-8.3-5.1s-5.8,1.6-7.6,4.9c-1.8,3.2-2.7,7.6-2.7,13.1c0,6.2,1.1,11.2,3.3,15s5.2,5.7,8.9,5.7
		C848.9,475.4,851.3,473.8,852.9,470.7z"/>
</g>
<g>
	<path class="st0" d="M546.1,523.1c1.5,1.2,2.3,2.7,2.3,4.7c0,1.3-0.3,2.5-1,3.6s-1.8,2.1-3.3,3.1s-3.4,2.1-5.9,3.2l0,0
		c-0.1,0-0.2-0.1-0.2-0.2c-0.1-0.1,0-0.2,0.1-0.2c2.5-1.4,4.3-2.9,5.3-4.3c1-1.4,1.5-3,1.5-4.7c0-1.9-0.6-3.4-1.7-4.5
		c-1.1-1.1-2.8-1.6-4.9-1.6c-0.1,0-0.2,0-0.3-0.1s-0.1-0.2-0.1-0.3l1.1-6.2c0-0.2,0.1-0.3,0.1-0.3s0.2-0.1,0.4-0.1
		c2.9-0.4,4.9-0.6,5.9-0.7c1-0.1,1.7-0.3,1.9-0.4c0.3-0.2,0.5-0.4,0.6-0.8c0-0.1,0.1-0.1,0.2-0.1c0.1,0,0.2,0.1,0.2,0.2l-0.7,3.9
		c-0.1,0.3-0.2,0.4-0.3,0.5s-0.4,0.1-0.7,0.1l-6.7,0.1c-0.3,0-0.5,0.2-0.5,0.5l-0.5,2.7C542.2,521.4,544.6,522,546.1,523.1z"/>
	<path class="st0" d="M558.3,518.2c-0.4-0.4-0.6-0.9-0.6-1.6c0-0.6,0.2-1.1,0.6-1.5c0.4-0.4,0.9-0.6,1.6-0.6s1.2,0.2,1.5,0.5
		s0.5,0.9,0.5,1.5c0,0.7-0.2,1.2-0.5,1.6s-0.9,0.6-1.5,0.6S558.7,518.5,558.3,518.2z M558.3,528c-0.4-0.4-0.6-0.9-0.6-1.6
		c0-0.6,0.2-1.1,0.6-1.5c0.4-0.4,0.9-0.6,1.6-0.6s1.2,0.2,1.5,0.5c0.4,0.4,0.5,0.9,0.5,1.5c0,0.7-0.2,1.2-0.5,1.6s-0.9,0.6-1.5,0.6
		S558.7,528.4,558.3,528z"/>
	<path class="st0" d="M574.1,527.7c-1.1-0.6-2-1.5-2.7-2.6c-0.6-1.1-1-2.4-1-3.7c0-1.4,0.3-2.6,1-3.7s1.5-1.9,2.7-2.5
		s2.4-0.9,3.9-0.9c1.4,0,2.7,0.3,3.8,0.9s2,1.5,2.6,2.6s0.9,2.3,0.9,3.7s-0.3,2.6-0.9,3.7s-1.5,2-2.6,2.6s-2.4,0.9-3.8,0.9
		C576.5,528.6,575.2,528.3,574.1,527.7z M580.8,526.3c0.5-1,0.8-2.5,0.8-4.4c0-2.4-0.4-4.1-1.1-5.2c-0.7-1.1-1.7-1.7-2.8-1.7
		s-1.9,0.5-2.6,1.6c-0.6,1.1-0.9,2.5-0.9,4.4c0,2.1,0.4,3.8,1.1,5c0.7,1.3,1.7,1.9,3,1.9C579.4,527.9,580.2,527.4,580.8,526.3z"/>
	<path class="st0" d="M596.9,527.7c-1.1-0.6-2-1.5-2.7-2.6c-0.6-1.1-1-2.4-1-3.7c0-1.4,0.3-2.6,1-3.7s1.5-1.9,2.7-2.5
		s2.4-0.9,3.9-0.9c1.4,0,2.7,0.3,3.8,0.9s2,1.5,2.6,2.6s0.9,2.3,0.9,3.7s-0.3,2.6-0.9,3.7s-1.5,2-2.6,2.6s-2.4,0.9-3.8,0.9
		C599.4,528.6,598.1,528.3,596.9,527.7z M603.6,526.3c0.5-1,0.8-2.5,0.8-4.4c0-2.4-0.4-4.1-1.1-5.2c-0.7-1.1-1.7-1.7-2.8-1.7
		s-1.9,0.5-2.6,1.6c-0.6,1.1-0.9,2.5-0.9,4.4c0,2.1,0.4,3.8,1.1,5c0.7,1.3,1.7,1.9,3,1.9C602.2,527.9,603,527.4,603.6,526.3z"/>
	<path class="st0" d="M616.3,522.1c0-0.2-0.1-0.4-0.1-0.6c0-0.2,0-0.4,0-0.6c0-0.2,0.1-0.2,0.1-0.2H632c0,0,0.1,0.1,0.1,0.3
		s0.1,0.4,0.1,0.6s0,0.4-0.1,0.6c0,0.2-0.1,0.3-0.1,0.3h-15.6C616.4,522.4,616.3,522.3,616.3,522.1z"/>
	<path class="st0" d="M653.6,519.5c0.8,0.9,1.2,2,1.2,3.2c0,1.1-0.3,2.1-1,3s-1.5,1.7-2.7,2.2c-1.1,0.5-2.4,0.8-3.7,0.8
		c-2.1,0-3.7-0.7-4.9-2c-1.2-1.4-1.8-3.2-1.8-5.7c0-2.2,0.5-4.3,1.5-6.5c1-2.1,2.5-4,4.4-5.7s4.2-2.9,6.7-3.8c0.1,0,0.2,0,0.2,0.1
		s0,0.2,0,0.2c-2,1-3.7,2.3-5.1,3.9c-1.4,1.6-2.5,3.4-3.2,5.3s-1,3.8-1,5.8c0,1.4,0.2,2.6,0.5,3.7c0.3,1.1,0.8,2,1.5,2.7
		c0.6,0.7,1.4,1,2.2,1c0.9,0,1.6-0.4,2.1-1.1c0.5-0.7,0.8-1.8,0.8-3.1c0-1.2-0.2-2.2-0.7-3c-0.5-0.7-1.2-1.1-2.2-1.1
		c-0.4,0-0.8,0.1-1.2,0.2c-0.4,0.2-0.8,0.4-1.3,0.8h-0.1c-0.1,0-0.1,0-0.2-0.1c-0.1-0.1-0.1-0.1-0.1-0.2c1.4-1.5,2.9-2.2,4.8-2.2
		C651.7,518.1,652.8,518.6,653.6,519.5z"/>
	<path class="st0" d="M663.9,518.2c-0.4-0.4-0.6-0.9-0.6-1.6c0-0.6,0.2-1.1,0.6-1.5c0.4-0.4,0.9-0.6,1.6-0.6s1.2,0.2,1.5,0.5
		s0.5,0.9,0.5,1.5c0,0.7-0.2,1.2-0.5,1.6s-0.9,0.6-1.5,0.6S664.3,518.5,663.9,518.2z M663.9,528c-0.4-0.4-0.6-0.9-0.6-1.6
		c0-0.6,0.2-1.1,0.6-1.5c0.4-0.4,0.9-0.6,1.6-0.6s1.2,0.2,1.5,0.5c0.4,0.4,0.5,0.9,0.5,1.5c0,0.7-0.2,1.2-0.5,1.6s-0.9,0.6-1.5,0.6
		S664.3,528.4,663.9,528z"/>
	<path class="st0" d="M686.6,525.4c0.8,0.9,1.2,2,1.2,3.2c0,1.1-0.4,2.2-1.2,3.4c-0.8,1.1-2,2.2-3.6,3.2s-3.6,1.9-6,2.6
		c-0.1,0-0.2,0-0.2-0.1c-0.1-0.1,0-0.2,0.1-0.2c2.5-1,4.4-2.3,5.5-3.8s1.7-3,1.7-4.5c0-1.4-0.3-2.5-1-3.3s-1.6-1.2-2.8-1.2
		c-0.5,0-0.9,0.1-1.4,0.2c-0.1,0-0.1,0-0.2-0.2c0-0.1,0-0.2,0-0.2c1.6-0.4,2.8-1.1,3.6-1.9c0.7-0.9,1.1-2,1.1-3.6
		c0-1.2-0.2-2.1-0.5-2.7c-0.3-0.6-0.9-0.9-1.5-0.9c-1,0-1.9,0.3-2.7,1s-1.5,1.7-2,2.9c0,0,0,0-0.1,0c-0.2,0-0.3,0-0.3-0.1l1.3-5.1
		l0.1-0.1c0.1,0,0.1,0,0.2,0.1s0.1,0.1,0.1,0.1c0,0.2-0.1,0.3-0.1,0.4c0,0.4,0.2,0.6,0.6,0.6c0.3,0,0.7-0.1,1.2-0.3
		c0.6-0.2,1-0.3,1.4-0.4c0.4-0.1,0.9-0.1,1.4-0.1c1.4,0,2.5,0.4,3.3,1.2s1.2,1.7,1.2,2.8s-0.3,2.2-1,3.2s-1.6,1.7-2.9,2.2
		C684.5,523.9,685.8,524.5,686.6,525.4z"/>
	<path class="st0" d="M699.6,527.7c-1.1-0.6-2-1.5-2.7-2.6c-0.6-1.1-1-2.4-1-3.7c0-1.4,0.3-2.6,1-3.7s1.5-1.9,2.7-2.5
		s2.4-0.9,3.9-0.9c1.4,0,2.7,0.3,3.8,0.9s2,1.5,2.6,2.6s0.9,2.3,0.9,3.7s-0.3,2.6-0.9,3.7s-1.5,2-2.6,2.6s-2.4,0.9-3.8,0.9
		C702,528.6,700.7,528.3,699.6,527.7z M706.2,526.3c0.5-1,0.8-2.5,0.8-4.4c0-2.4-0.4-4.1-1.1-5.2c-0.7-1.1-1.7-1.7-2.8-1.7
		s-1.9,0.5-2.6,1.6c-0.6,1.1-0.9,2.5-0.9,4.4c0,2.1,0.4,3.8,1.1,5c0.7,1.3,1.7,1.9,3,1.9C704.9,527.9,705.7,527.4,706.2,526.3z"/>
	<path class="st0" d="M725.7,526.8c0.2,0.3,0.5,0.6,0.9,0.7s1.2,0.2,2.2,0.2c0.1,0,0.1,0.1,0.1,0.2s0,0.2-0.1,0.2c-1,0-1.7,0-2.2,0
		h-3H721c-0.5,0-1.1,0-1.9,0c-0.1,0-0.1-0.1-0.1-0.2s0-0.2,0.1-0.2c0.7,0,1.3-0.1,1.6-0.2c0.3-0.1,0.6-0.3,0.7-0.7
		c0.1-0.3,0.2-0.9,0.2-1.6V509c0-0.7-0.1-1.2-0.2-1.5c-0.1-0.3-0.3-0.6-0.7-0.7c-0.3-0.1-0.9-0.2-1.6-0.2c-0.1,0-0.1-0.1-0.1-0.2
		s0-0.2,0.1-0.2h1.9c1.1,0,1.9,0.1,2.6,0.1c0.6,0,1.2,0,2-0.1c0.3,0,0.7,0,1.2-0.1c0.5,0,1,0,1.6,0c2.4,0,4.3,0.5,5.6,1.5
		c1.4,1,2.1,2.5,2.1,4.6c0,1.4-0.4,2.7-1.1,3.7c-0.7,1-1.7,1.8-2.9,2.3s-2.4,0.8-3.6,0.8c-0.6,0-1.2-0.1-1.6-0.2
		c0,0-0.1-0.1-0.1-0.2c0-0.1,0-0.1,0.1-0.2c0-0.1,0.1-0.1,0.1-0.1c0.4,0.1,0.7,0.1,1.2,0.1c1.1,0,2-0.5,2.7-1.5s1.1-2.4,1.1-4.3
		c0-1.8-0.4-3.3-1.2-4.3s-1.9-1.5-3.4-1.5c-0.7,0-1.1,0.2-1.3,0.5s-0.4,0.9-0.4,1.8v16C725.4,526,725.5,526.5,725.7,526.8z"/>
	<path class="st0" d="M772.6,528c0,0.1,0,0.2-0.1,0.2c-0.8,0-1.4,0-1.9,0H768h-2.6c-0.4,0-1,0-1.8,0c-0.1,0-0.1-0.1-0.1-0.2
		s0-0.2,0.1-0.2c1,0,1.6-0.1,2-0.3s0.5-0.7,0.5-1.5v-0.6l-0.7-14.3l-7.2,16.9c0,0.1-0.1,0.1-0.3,0.1c-0.1,0-0.2,0-0.3-0.1l-8.9-16.8
		l-0.3,12.6c0,1.3,0.2,2.2,0.8,3c0.5,0.7,1.3,1.1,2.2,1.1c0.1,0,0.1,0.1,0.1,0.2s0,0.2-0.1,0.2c-0.6,0-1.1,0-1.5,0H748h-2.2
		c-0.4,0-0.9,0-1.5,0c-0.1,0-0.1-0.1-0.1-0.2s0-0.2,0.1-0.2c1,0,1.7-0.4,2.3-1.1c0.6-0.7,0.9-1.7,0.9-2.9l0.3-14.5l0,0
		c-0.5-0.9-1-1.5-1.5-1.9s-1.1-0.6-1.7-0.6c-0.1,0-0.1-0.1-0.1-0.2s0-0.2,0.1-0.2h1.6c0.3,0,0.7,0,1.3,0h1.9c0.2,0,0.5,0,0.8,0
		s0.5,0.1,0.7,0.3c0.2,0.2,0.5,0.7,0.9,1.5l7.6,14.3l6.6-15.3c0.1-0.3,0.3-0.6,0.4-0.7c0.2-0.1,0.4-0.2,0.6-0.2c0.2,0,0.4,0,0.7,0
		s0.6,0,0.9,0h2.1c0.3,0,0.8,0,1.4,0c0.1,0,0.1,0.1,0.1,0.2s0,0.2-0.1,0.2c-1.1,0-1.9,0.2-2.4,0.7s-0.7,1.1-0.7,2.1l0.8,15.9
		c0,0.7,0.1,1.2,0.3,1.6s0.4,0.5,0.7,0.7c0.3,0.1,0.9,0.2,1.6,0.2C772.6,527.8,772.6,527.8,772.6,528z"/>
	<path class="st0" d="M819.5,528c0,0.1,0,0.2-0.1,0.2c-0.8,0-1.5,0-2,0h-2.7h-3.1c-0.4,0-1,0-1.7,0c-0.1,0-0.1-0.1-0.1-0.2
		s0-0.2,0.1-0.2c0.9,0,1.5-0.1,1.9-0.2c0.4-0.1,0.7-0.3,0.8-0.7s0.2-0.9,0.2-1.6v-8h-11.3v8c0,0.7,0.1,1.2,0.2,1.6
		c0.1,0.3,0.4,0.6,0.8,0.7s1,0.2,1.9,0.2c0,0,0.1,0.1,0.1,0.2s0,0.2-0.1,0.2c-0.8,0-1.5,0-2,0h-3h-2.6c-0.5,0-1.1,0-1.9,0
		c0,0-0.1-0.1-0.1-0.2s0-0.2,0.1-0.2c0.8,0,1.4-0.1,1.8-0.2s0.6-0.3,0.8-0.7c0.1-0.3,0.2-0.9,0.2-1.6v-16.2c0-0.7-0.1-1.2-0.2-1.5
		c-0.1-0.3-0.4-0.6-0.8-0.7c-0.4-0.1-0.9-0.2-1.7-0.2c-0.1,0-0.1-0.1-0.1-0.2s0-0.2,0.1-0.2h1.9c1.1,0,1.9,0.1,2.6,0.1
		c0.9,0,1.9,0,3.1-0.1h1.9c0,0,0.1,0.1,0.1,0.2s0,0.2-0.1,0.2c-0.8,0-1.5,0.1-1.9,0.2s-0.7,0.4-0.8,0.7c-0.2,0.3-0.2,0.9-0.2,1.6
		v7.1h11.3v-7.1c0-0.7-0.1-1.2-0.2-1.6s-0.4-0.6-0.8-0.7c-0.4-0.1-1-0.2-1.9-0.2c-0.1,0-0.1-0.1-0.1-0.2s0-0.2,0.1-0.2h1.7
		c1.2,0,2.2,0.1,3.1,0.1c0.6,0,1.5,0,2.7-0.1h2c0.1,0,0.1,0.1,0.1,0.2s0,0.2-0.1,0.2c-0.8,0-1.4,0.1-1.8,0.2
		c-0.4,0.1-0.6,0.4-0.8,0.7c-0.1,0.3-0.2,0.8-0.2,1.5v16.2c0,0.7,0.1,1.2,0.2,1.6c0.1,0.3,0.4,0.6,0.8,0.7s1,0.2,1.8,0.2
		C819.5,527.8,819.5,527.8,819.5,528z"/>
	<path class="st0" d="M833.4,512.1c0.4,0.7,1,1.2,1.6,1.7s1.5,1.1,2.6,1.8c1.2,0.7,2.1,1.4,2.8,2s1.3,1.2,1.8,2s0.7,1.7,0.7,2.8
		c0,1.2-0.3,2.3-1,3.2s-1.6,1.7-2.7,2.2c-1.2,0.5-2.4,0.8-3.9,0.8c-1,0-2.1-0.1-3.3-0.4c-1.1-0.3-1.9-0.6-2.3-1
		c-0.1-0.1-0.2-0.2-0.3-0.3s-0.1-0.2-0.1-0.4l-0.1-5.6l0,0c0-0.1,0.1-0.1,0.2-0.2c0.1,0,0.2,0,0.2,0.1c0.7,1.4,1.3,2.6,1.8,3.5
		s1.2,1.7,2,2.3s1.7,1,2.7,1c0.9,0,1.7-0.2,2.3-0.8c0.6-0.5,0.9-1.4,0.9-2.6c0-1-0.2-1.9-0.7-2.7s-1-1.4-1.7-2
		c-0.7-0.5-1.6-1.2-2.7-1.9c-1.1-0.7-2-1.3-2.6-1.9c-0.6-0.5-1.2-1.1-1.6-1.9c-0.4-0.7-0.7-1.6-0.7-2.6c0-1.2,0.4-2.3,1.1-3.1
		c0.7-0.9,1.6-1.5,2.7-1.9c1.1-0.4,2.3-0.6,3.5-0.6c0.8,0,1.6,0.1,2.5,0.2s1.5,0.3,2,0.5c0.2,0.1,0.3,0.2,0.4,0.3
		c0.1,0.1,0.1,0.2,0.1,0.4v5.1c0,0.1-0.1,0.1-0.2,0.2c-0.1,0-0.2,0-0.2-0.1l-0.3-0.7c-0.6-1.5-1.3-2.7-2-3.7c-0.8-1-1.9-1.5-3.3-1.5
		c-0.9,0-1.7,0.3-2.3,0.8s-0.9,1.3-0.9,2.3C832.7,510.7,833,511.4,833.4,512.1z"/>
	<path class="st0" d="M852.6,512.5c0,0.1-0.1,0.1-0.2,0.1c-0.1,0-0.2-0.1-0.2-0.1c0.1-0.9,0.2-2.1,0.3-3.6s0.2-2.6,0.2-3.3
		c0-0.1,0.1-0.2,0.2-0.2c0.1,0,0.2,0.1,0.2,0.2c0,0.5,0.7,0.8,2,0.8c2,0.1,4.4,0.1,7,0.1c1.4,0,2.8,0,4.4-0.1h2.4
		c0.9,0,1.5-0.1,1.9-0.2s0.7-0.4,0.8-0.7c0-0.1,0.1-0.1,0.2-0.1c0.1,0,0.2,0,0.2,0.1c-0.1,0.7-0.1,1.8-0.2,3.4s-0.1,2.8-0.1,3.7
		c0,0.1-0.1,0.1-0.2,0.1c-0.1,0-0.2,0-0.2-0.1c-0.3-1.8-1-3.1-2-4s-2.1-1.3-3.5-1.3c-0.7,0-1.1,0.1-1.3,0.4s-0.3,0.8-0.3,1.7v16.1
		c0,0.7,0.1,1.2,0.2,1.6c0.1,0.3,0.4,0.5,0.8,0.7c0.4,0.1,1,0.2,1.9,0.2c0.1,0,0.1,0.1,0.1,0.2s0,0.2-0.1,0.2c-0.8,0-1.5,0-2,0h-2.9
		h-2.8c-0.5,0-1.2,0-2,0c-0.1,0-0.1-0.1-0.1-0.2s0-0.2,0.1-0.2c0.8,0,1.5-0.1,1.9-0.2s0.7-0.3,0.8-0.7c0.2-0.3,0.2-0.9,0.2-1.6
		v-16.2c0-0.8-0.1-1.3-0.3-1.6c-0.2-0.3-0.6-0.4-1.3-0.4C855.8,507.1,853.8,508.9,852.6,512.5z"/>
</g>
<g>
	<path class="st0" d="M2.7,365.4v-25h1.7v25H2.7z"/>
	<path class="st0" d="M29.3,365.4h-2.1L17.8,343h-0.1c0.1,1.5,0.2,3,0.2,4.5v17.9h-1.6v-25h2.2l9.4,22.1H28
		c-0.1-1.9-0.1-3.4-0.1-4.7v-17.5h1.6v25.1H29.3z"/>
	<path class="st0" d="M45.3,365.4h-1.7V342h-5v-1.6h11.6v1.6h-5v23.4H45.3z"/>
	<path class="st0" d="M68.6,365.4h-9.1v-25h9.1v1.6h-7.4v9.5h7v1.6h-7v10.7h7.4V365.4z"/>
	<path class="st0" d="M81,354.5v10.9h-1.7v-25h3.4c2.4,0,4.2,0.6,5.3,1.7c1.1,1.2,1.7,2.9,1.7,5.2c0,1.7-0.3,3.2-0.9,4.3
		s-1.6,2-3.1,2.5l5,11.3h-1.9l-4.7-10.9H81z M81,353h2.3c1.5,0,2.7-0.5,3.5-1.4s1.2-2.3,1.2-4.2c0-1.9-0.4-3.2-1.3-4.1
		c-0.8-0.8-2.2-1.2-4-1.2H81V353z"/>
	<path class="st0" d="M102.2,365.4h-1.7v-25h9.1v1.6h-7.4v10.6h7v1.6h-7V365.4z"/>
	<path class="st0" d="M128.7,365.4l-2.2-9.1h-6.1l-2.2,9.1h-1.7l6-25h1.7l6.2,25H128.7z M126.1,354.7l-2.2-9.3c-0.2-1-0.4-2-0.5-3
		c-0.1,1-0.3,2-0.5,3l-2.1,9.3H126.1z"/>
	<path class="st0" d="M146.5,341.7c-1.9,0-3.4,1-4.5,3s-1.7,4.7-1.7,8.3c0,2.3,0.3,4.3,0.8,6s1.2,3,2.2,3.9s2.1,1.4,3.3,1.4
		c1.3,0,2.4-0.2,3.3-0.7v1.5c-0.9,0.5-2.1,0.8-3.5,0.8c-1.6,0-3-0.5-4.2-1.5s-2.1-2.5-2.8-4.5c-0.6-1.9-1-4.2-1-6.9
		c0-4,0.7-7.1,2.1-9.4c1.4-2.3,3.4-3.4,5.8-3.4c1.5,0,2.9,0.4,4,1.1l-0.8,1.5C148.8,342,147.7,341.7,146.5,341.7z"/>
	<path class="st0" d="M169.5,365.4h-9.1v-25h9.1v1.6h-7.4v9.5h7v1.6h-7v10.7h7.4V365.4z"/>
	<path class="st0" d="M205.5,352.7c0,8.5-2.6,12.7-7.9,12.7h-4.4v-25h4.5c2.6,0,4.5,1,5.9,3.1C204.8,345.7,205.5,348.7,205.5,352.7z
		 M203.7,352.8c0-3.5-0.5-6.2-1.6-8c-1-1.8-2.6-2.8-4.6-2.8h-2.8v21.9h2.7c2.2,0,3.8-0.9,4.8-2.8
		C203.2,359.2,203.7,356.4,203.7,352.8z"/>
	<path class="st0" d="M225.5,365.4h-9.1v-25h9.1v1.6h-7.4v9.5h7v1.6h-7v10.7h7.4V365.4z"/>
	<path class="st0" d="M245.7,358.9c0,2.1-0.6,3.7-1.7,5c-1.1,1.3-2.6,1.9-4.3,1.9c-2,0-3.6-0.3-4.8-0.9v-1.8
		c0.6,0.3,1.3,0.6,2.2,0.8c0.9,0.2,1.7,0.3,2.6,0.3c1.3,0,2.3-0.5,3.1-1.5s1.2-2.2,1.2-3.7c0-1.4-0.3-2.5-0.9-3.3s-1.7-1.6-3.3-2.4
		c-1.3-0.6-2.3-1.3-2.9-1.9c-0.6-0.6-1.1-1.3-1.4-2.1c-0.3-0.8-0.5-1.8-0.5-2.9c0-1.2,0.2-2.3,0.8-3.3c0.5-1,1.2-1.7,2.1-2.2
		c0.9-0.5,1.9-0.8,3-0.8c1,0,1.8,0.1,2.6,0.3c0.8,0.2,1.4,0.5,1.9,0.7l-0.6,1.6c-1.3-0.6-2.6-1-3.9-1c-1.2,0-2.2,0.4-3,1.3
		c-0.8,0.8-1.2,1.9-1.2,3.3s0.3,2.5,0.8,3.3c0.6,0.8,1.7,1.6,3.3,2.4c1.7,0.8,2.9,1.8,3.7,2.9C245.4,356,245.7,357.3,245.7,358.9z"
		/>
	<path class="st0" d="M256.3,365.4v-25h1.7v25H256.3z"/>
	<path class="st0" d="M277.9,352.8h5.5v11.8c-1.9,0.7-3.9,1.1-5.9,1.1c-2.7,0-4.8-1.1-6.3-3.4s-2.3-5.4-2.3-9.5s0.8-7.2,2.3-9.4
		c1.6-2.2,3.7-3.3,6.6-3.3c1.9,0,3.7,0.5,5.3,1.6l-0.8,1.5c-1.6-1-3.1-1.5-4.5-1.5c-2.3,0-4.1,1-5.3,2.9c-1.2,1.9-1.8,4.7-1.8,8.4
		c0,3.6,0.6,6.3,1.8,8.3c1.2,2,2.9,2.9,5.2,2.9c1.6,0,3-0.2,4.1-0.6v-9.1H278v-1.7H277.9z"/>
	<path class="st0" d="M307.6,365.4h-2.1L296,343h-0.1c0.1,1.5,0.2,3,0.2,4.5v17.9h-1.6v-25h2.2l9.4,22.1h0.1
		c-0.1-1.9-0.1-3.4-0.1-4.7v-17.5h1.6v25.1H307.6z"/>
	<path class="st0" d="M318.9,348.7c0-1.2,0.4-1.8,1.3-1.8s1.3,0.6,1.3,1.8c0,0.6-0.1,1.1-0.4,1.4s-0.6,0.4-0.9,0.4
		C319.3,350.5,318.9,349.9,318.9,348.7z M318.9,363.9c0-1.2,0.4-1.8,1.3-1.8c0.4,0,0.7,0.1,0.9,0.4c0.3,0.3,0.4,0.7,0.4,1.4
		c0,0.6-0.1,1.1-0.4,1.4s-0.6,0.4-0.9,0.4C319.3,365.7,318.9,365.1,318.9,363.9z"/>
</g>
<g>
	<path class="st0" d="M13.5,474.8c-3.4-1.9-6-4.5-7.9-7.8s-2.9-7-2.9-11.1s1-7.8,2.9-11s4.6-5.8,7.9-7.6c3.4-1.8,7.2-2.7,11.5-2.7
		s8.1,0.9,11.5,2.8c3.3,1.8,5.9,4.4,7.8,7.7c1.8,3.3,2.8,7,2.8,11.1s-0.9,7.8-2.8,11.1c-1.9,3.3-4.5,5.8-7.8,7.7
		c-3.3,1.8-7.1,2.8-11.4,2.8C20.8,477.6,16.9,476.6,13.5,474.8z M33.4,470.7c1.6-3.1,2.5-7.5,2.5-13.2c0-7-1.1-12.3-3.3-15.7
		s-5-5.1-8.3-5.1s-5.8,1.6-7.6,4.9c-1.8,3.2-2.7,7.6-2.7,13.1c0,6.2,1.1,11.2,3.3,15s5.2,5.7,8.9,5.7
		C29.3,475.4,31.7,473.8,33.4,470.7z"/>
	<path class="st0" d="M95.7,450.1c2.3,2.7,3.4,5.8,3.4,9.5c0,3.3-1,6.3-2.9,9c-2,2.8-4.6,4.9-8,6.5s-7.1,2.4-11,2.4
		c-6.2,0-11.1-2-14.7-6.1c-3.6-4.1-5.4-9.7-5.4-16.9c0-6.5,1.5-13,4.6-19.3c3.1-6.3,7.5-11.9,13.2-16.9c5.7-4.9,12.5-8.7,20.1-11.3
		c0.3-0.1,0.5,0.1,0.6,0.4s0.1,0.6-0.1,0.7c-6,3-11.1,6.9-15.3,11.8c-4.2,4.8-7.3,10.1-9.4,15.8c-2.1,5.7-3.1,11.5-3.1,17.2
		c0,4,0.5,7.7,1.5,11.1c1,3.3,2.5,6,4.3,7.9c1.9,2,4,2.9,6.5,2.9c2.6,0,4.6-1.1,6.2-3.3s2.3-5.2,2.3-9.1c0-3.7-0.7-6.6-2.2-8.8
		s-3.6-3.3-6.5-3.3c-1.3,0-2.4,0.2-3.6,0.7c-1.1,0.5-2.4,1.2-3.9,2.2c-0.1,0.1-0.2,0.1-0.3,0.1c-0.2,0-0.4-0.1-0.6-0.3
		s-0.3-0.4-0.2-0.5c4-4.4,8.8-6.6,14.2-6.6C90,446.1,93.4,447.5,95.7,450.1z"/>
	<path class="st0" d="M111.4,475.6c-1.1-1.1-1.7-2.7-1.7-4.7c0-1.8,0.6-3.3,1.7-4.4s2.7-1.7,4.7-1.7c1.9,0,3.5,0.5,4.5,1.6
		c1.1,1.1,1.6,2.6,1.6,4.4c0,2-0.5,3.6-1.6,4.7s-2.6,1.7-4.5,1.7C114.1,477.4,112.6,476.8,111.4,475.6z"/>
	<path class="st0" d="M143.6,474.8c-3.4-1.9-6-4.5-7.9-7.8s-2.9-7-2.9-11.1s1-7.8,2.9-11s4.6-5.8,7.9-7.6c3.4-1.8,7.2-2.7,11.5-2.7
		s8.1,0.9,11.5,2.8c3.3,1.8,5.9,4.4,7.8,7.7c1.8,3.3,2.8,7,2.8,11.1s-0.9,7.8-2.8,11.1c-1.9,3.3-4.5,5.8-7.8,7.7
		c-3.3,1.8-7.1,2.8-11.4,2.8C150.8,477.6,147,476.6,143.6,474.8z M163.5,470.7c1.6-3.1,2.5-7.5,2.5-13.2c0-7-1.1-12.3-3.3-15.7
		s-5-5.1-8.3-5.1s-5.8,1.6-7.6,4.9c-1.8,3.2-2.7,7.6-2.7,13.1c0,6.2,1.1,11.2,3.3,15s5.2,5.7,8.9,5.7
		C159.4,475.4,161.8,473.8,163.5,470.7z"/>
	<path class="st0" d="M227.5,472.9c0,0.8-0.1,1.5-0.2,2.2c-0.1,0.7-0.2,1-0.4,1l-6.9-0.3v14.5c0,0.7-0.3,1.2-0.8,1.5l-8.3,4.1
		l-0.6,0.2c-0.2,0-0.3-0.3-0.3-0.8v-19.7c-4.2-0.1-11.9-0.1-23.2-0.1c-0.3,0-0.6-0.1-0.8-0.4s-0.2-0.6,0.1-0.8l32.4-39.3
		c0.1-0.1,0.3-0.2,0.6-0.2c0.2,0,0.4,0.1,0.6,0.2s0.3,0.3,0.3,0.5v36.2c1.4,0,3.8-0.1,7.1-0.2C227.4,471.2,227.5,471.8,227.5,472.9z
		 M210,471.7v-21.1l-17.5,20.5c-0.4,0.5-0.2,0.7,0.5,0.7C201.2,471.8,206.8,471.8,210,471.7z"/>
	<path class="st0" d="M240.6,475.6c-1.1-1.1-1.7-2.7-1.7-4.7c0-1.8,0.6-3.3,1.7-4.4c1.1-1.1,2.7-1.7,4.7-1.7c1.9,0,3.5,0.5,4.5,1.6
		c1.1,1.1,1.6,2.6,1.6,4.4c0,2-0.5,3.6-1.6,4.7s-2.6,1.7-4.5,1.7C243.3,477.4,241.7,476.8,240.6,475.6z"/>
	<path class="st0" d="M276.4,460.8c2.8-2.8,4.8-5.2,5.9-7.3c1.1-2,1.7-4.1,1.7-6.2c0-2.6-0.7-4.8-2-6.7c-1.3-1.9-3.2-2.9-5.6-2.9
		c-2.6,0-4.7,1.1-6.3,3.4c-1.6,2.3-3.3,5.8-5,10.5c0,0.1-0.1,0.1-0.4,0.1c-0.6,0-0.9-0.1-0.8-0.3l4.6-17.9c0-0.1,0.1-0.2,0.4-0.2
		c0.2,0,0.4,0.1,0.6,0.2s0.2,0.2,0.2,0.3c-0.1,0.3-0.1,0.8-0.1,1.3c0,1.2,0.5,1.8,1.6,1.8c0.6,0,1.7-0.2,3.1-0.7
		c3-1,5.7-1.6,8.3-1.6c3.8,0,6.8,0.9,9,2.7c2.2,1.8,3.2,4.2,3.2,7.2c0,3.6-1.4,6.9-4.2,9.9c-2.8,3-6.7,6.2-11.7,9.7l-4.2,3.1
		c-0.2,0.2-0.3,0.4-0.2,0.5c0.1,0.1,0.3,0.2,0.7,0.2c5.6,0,9.8-0.1,12.6-0.3s5-0.7,6.7-1.4c1.6-0.7,2.7-1.9,3.2-3.5
		c0.1-0.2,0.3-0.3,0.7-0.3c0.4,0,0.6,0.1,0.6,0.3l-2.2,12.4c0,0.3-0.1,0.5-0.3,0.8c-0.2,0.2-0.4,0.4-0.7,0.4h-32
		c-0.3,0-0.5-0.2-0.7-0.6s-0.3-0.8-0.3-1.3s0.1-0.7,0.3-0.9C269.2,467.8,273.6,463.6,276.4,460.8z"/>
	<path class="st0" d="M318.1,474.8c-3.4-1.9-6-4.5-7.9-7.8s-2.9-7-2.9-11.1s1-7.8,2.9-11s4.6-5.8,7.9-7.6c3.4-1.8,7.2-2.7,11.5-2.7
		s8.1,0.9,11.5,2.8c3.3,1.8,5.9,4.4,7.8,7.7c1.8,3.3,2.8,7,2.8,11.1s-0.9,7.8-2.8,11.1c-1.9,3.3-4.5,5.8-7.8,7.7
		c-3.3,1.8-7.1,2.8-11.4,2.8C325.3,477.6,321.5,476.6,318.1,474.8z M338,470.7c1.6-3.1,2.5-7.5,2.5-13.2c0-7-1.1-12.3-3.3-15.7
		s-5-5.1-8.3-5.1s-5.8,1.6-7.6,4.9c-1.8,3.2-2.7,7.6-2.7,13.1c0,6.2,1.1,11.2,3.3,15c2.2,3.8,5.2,5.7,8.9,5.7
		C333.9,475.4,336.3,473.8,338,470.7z"/>
</g>
<g>
	<path class="st0" d="M10.3,523.1c1.5,1.2,2.3,2.7,2.3,4.7c0,1.3-0.3,2.5-1,3.6s-1.8,2.1-3.3,3.1s-3.4,2.1-5.9,3.2l0,0
		c-0.1,0-0.2-0.1-0.2-0.2c-0.1-0.1,0-0.2,0.1-0.2c2.5-1.4,4.3-2.9,5.3-4.3c1-1.4,1.5-3,1.5-4.7c0-1.9-0.6-3.4-1.7-4.5
		s-2.8-1.6-4.9-1.6c-0.1,0-0.2,0-0.3-0.1C2,522.1,2,522,2,521.9l1.1-6.2c0-0.2,0.1-0.3,0.1-0.3s0.2-0.1,0.4-0.1
		c2.9-0.4,4.9-0.6,5.9-0.7c1-0.1,1.7-0.3,1.9-0.4c0.3-0.2,0.5-0.4,0.6-0.8c0-0.1,0.1-0.1,0.2-0.1c0.1,0,0.2,0.1,0.2,0.2l-0.7,3.9
		c-0.1,0.3-0.2,0.4-0.3,0.5S11,518,10.7,518L4,518.1c-0.3,0-0.5,0.2-0.5,0.5L3,521.3C6.4,521.4,8.8,522,10.3,523.1z"/>
	<path class="st0" d="M22.6,518.2c-0.4-0.4-0.6-0.9-0.6-1.6c0-0.6,0.2-1.1,0.6-1.5s0.9-0.6,1.6-0.6s1.2,0.2,1.5,0.5s0.5,0.9,0.5,1.5
		c0,0.7-0.2,1.2-0.5,1.6s-0.9,0.6-1.5,0.6S22.9,518.5,22.6,518.2z M22.6,528c-0.4-0.4-0.6-0.9-0.6-1.6c0-0.6,0.2-1.1,0.6-1.5
		s0.9-0.6,1.6-0.6s1.2,0.2,1.5,0.5c0.4,0.4,0.5,0.9,0.5,1.5c0,0.7-0.2,1.2-0.5,1.6s-0.9,0.6-1.5,0.6S22.9,528.4,22.6,528z"/>
	<path class="st0" d="M38.3,527.7c-1.1-0.6-2-1.5-2.7-2.6c-0.6-1.1-1-2.4-1-3.7c0-1.4,0.3-2.6,1-3.7s1.5-1.9,2.7-2.5
		s2.4-0.9,3.9-0.9c1.4,0,2.7,0.3,3.8,0.9s2,1.5,2.6,2.6s0.9,2.3,0.9,3.7s-0.3,2.6-0.9,3.7s-1.5,2-2.6,2.6s-2.4,0.9-3.8,0.9
		C40.8,528.6,39.5,528.3,38.3,527.7z M45,526.3c0.5-1,0.8-2.5,0.8-4.4c0-2.4-0.4-4.1-1.1-5.2c-0.7-1.1-1.7-1.7-2.8-1.7
		s-1.9,0.5-2.6,1.6c-0.6,1.1-0.9,2.5-0.9,4.4c0,2.1,0.4,3.8,1.1,5c0.7,1.3,1.7,1.9,3,1.9C43.6,527.9,44.4,527.4,45,526.3z"/>
	<path class="st0" d="M61.2,527.7c-1.1-0.6-2-1.5-2.7-2.6c-0.6-1.1-1-2.4-1-3.7c0-1.4,0.3-2.6,1-3.7s1.5-1.9,2.7-2.5
		s2.4-0.9,3.9-0.9c1.4,0,2.7,0.3,3.8,0.9s2,1.5,2.6,2.6s0.9,2.3,0.9,3.7s-0.3,2.6-0.9,3.7s-1.5,2-2.6,2.6s-2.4,0.9-3.8,0.9
		C63.6,528.6,62.3,528.3,61.2,527.7z M67.8,526.3c0.5-1,0.8-2.5,0.8-4.4c0-2.4-0.4-4.1-1.1-5.2c-0.7-1.1-1.7-1.7-2.8-1.7
		c-1.1,0-1.9,0.5-2.6,1.6c-0.6,1.1-0.9,2.5-0.9,4.4c0,2.1,0.4,3.8,1.1,5c0.7,1.3,1.7,1.9,3,1.9C66.5,527.9,67.3,527.4,67.8,526.3z"
		/>
	<path class="st0" d="M80.5,522.1c0-0.2-0.1-0.4-0.1-0.6c0-0.2,0-0.4,0-0.6c0-0.2,0.1-0.2,0.1-0.2h15.7c0,0,0.1,0.1,0.1,0.3
		s0.1,0.4,0.1,0.6s0,0.4-0.1,0.6c0,0.2-0.1,0.3-0.1,0.3H80.6C80.6,522.4,80.6,522.3,80.5,522.1z"/>
	<path class="st0" d="M109.1,536.4l-2.9,1.4l0,0c-0.1,0-0.1,0-0.2-0.1s-0.1-0.1,0-0.2l9-19.5c0.1-0.2,0-0.2-0.1-0.2
		c-3.3,0-5.6,0-6.9,0.1s-2.1,0.3-2.6,0.6c-0.4,0.3-0.8,0.9-1,1.6c0,0-0.1,0.1-0.2,0.1s-0.1,0-0.2-0.1c-0.1,0-0.1-0.1-0.1-0.1
		l1.6-6.3c0,0,0.1-0.1,0.2-0.1s0.2,0,0.2,0.1s0,0.2,0,0.3c0,0.2,0.1,0.4,0.3,0.5c0.2,0.1,0.7,0.1,1.3,0.1h9.3c0.1,0,0.2,0.1,0.3,0.2
		c0.1,0.1,0.1,0.2,0.1,0.3l-7.5,20.5C109.6,536,109.4,536.3,109.1,536.4z"/>
	<path class="st0" d="M126.9,518.2c-0.4-0.4-0.6-0.9-0.6-1.6c0-0.6,0.2-1.1,0.6-1.5s0.9-0.6,1.6-0.6s1.2,0.2,1.5,0.5
		s0.5,0.9,0.5,1.5c0,0.7-0.2,1.2-0.5,1.6s-0.9,0.6-1.5,0.6S127.2,518.5,126.9,518.2z M126.9,528c-0.4-0.4-0.6-0.9-0.6-1.6
		c0-0.6,0.2-1.1,0.6-1.5s0.9-0.6,1.6-0.6s1.2,0.2,1.5,0.5c0.4,0.4,0.5,0.9,0.5,1.5c0,0.7-0.2,1.2-0.5,1.6s-0.9,0.6-1.5,0.6
		S127.2,528.4,126.9,528z"/>
	<path class="st0" d="M142.6,527.7c-1.1-0.6-2-1.5-2.7-2.6c-0.6-1.1-1-2.4-1-3.7c0-1.4,0.3-2.6,1-3.7s1.5-1.9,2.7-2.5
		s2.4-0.9,3.9-0.9c1.4,0,2.7,0.3,3.8,0.9s2,1.5,2.6,2.6s0.9,2.3,0.9,3.7s-0.3,2.6-0.9,3.7s-1.5,2-2.6,2.6s-2.4,0.9-3.8,0.9
		C145.1,528.6,143.8,528.3,142.6,527.7z M149.3,526.3c0.5-1,0.8-2.5,0.8-4.4c0-2.4-0.4-4.1-1.1-5.2c-0.7-1.1-1.7-1.7-2.8-1.7
		s-1.9,0.5-2.6,1.6c-0.6,1.1-0.9,2.5-0.9,4.4c0,2.1,0.4,3.8,1.1,5c0.7,1.3,1.7,1.9,3,1.9C147.9,527.9,148.7,527.4,149.3,526.3z"/>
	<path class="st0" d="M165.5,527.7c-1.1-0.6-2-1.5-2.7-2.6c-0.6-1.1-1-2.4-1-3.7c0-1.4,0.3-2.6,1-3.7s1.5-1.9,2.7-2.5
		s2.4-0.9,3.9-0.9c1.4,0,2.7,0.3,3.8,0.9s2,1.5,2.6,2.6s0.9,2.3,0.9,3.7s-0.3,2.6-0.9,3.7s-1.5,2-2.6,2.6s-2.4,0.9-3.8,0.9
		C167.9,528.6,166.6,528.3,165.5,527.7z M172.1,526.3c0.5-1,0.8-2.5,0.8-4.4c0-2.4-0.4-4.1-1.1-5.2c-0.7-1.1-1.7-1.7-2.8-1.7
		s-1.9,0.5-2.6,1.6c-0.6,1.1-0.9,2.5-0.9,4.4c0,2.1,0.4,3.8,1.1,5c0.7,1.3,1.7,1.9,3,1.9C170.8,527.9,171.6,527.4,172.1,526.3z"/>
	<path class="st0" d="M191.6,526.8c0.2,0.3,0.5,0.6,0.9,0.7s1.2,0.2,2.2,0.2c0.1,0,0.1,0.1,0.1,0.2s0,0.2-0.1,0.2c-1,0-1.7,0-2.2,0
		h-3h-2.6c-0.5,0-1.1,0-1.9,0c-0.1,0-0.1-0.1-0.1-0.2s0-0.2,0.1-0.2c0.7,0,1.3-0.1,1.6-0.2c0.3-0.1,0.6-0.3,0.7-0.7
		c0.1-0.3,0.2-0.9,0.2-1.6V509c0-0.7-0.1-1.2-0.2-1.5c-0.1-0.3-0.3-0.6-0.7-0.7c-0.3-0.1-0.9-0.2-1.6-0.2c-0.1,0-0.1-0.1-0.1-0.2
		s0-0.2,0.1-0.2h1.9c1.1,0,1.9,0.1,2.6,0.1c0.6,0,1.2,0,2-0.1c0.3,0,0.7,0,1.2-0.1c0.5,0,1,0,1.6,0c2.4,0,4.3,0.5,5.6,1.5
		c1.4,1,2.1,2.5,2.1,4.6c0,1.4-0.4,2.7-1.1,3.7c-0.7,1-1.7,1.8-2.9,2.3s-2.4,0.8-3.6,0.8c-0.6,0-1.2-0.1-1.6-0.2
		c0,0-0.1-0.1-0.1-0.2c0-0.1,0-0.1,0.1-0.2c0-0.1,0.1-0.1,0.1-0.1c0.4,0.1,0.7,0.1,1.2,0.1c1.1,0,2-0.5,2.7-1.5s1.1-2.4,1.1-4.3
		c0-1.8-0.4-3.3-1.2-4.3s-1.9-1.5-3.4-1.5c-0.7,0-1.1,0.2-1.3,0.5s-0.4,0.9-0.4,1.8v16C191.3,526,191.4,526.5,191.6,526.8z"/>
	<path class="st0" d="M238.5,528c0,0.1,0,0.2-0.1,0.2c-0.8,0-1.4,0-1.9,0h-2.6h-2.6c-0.4,0-1,0-1.8,0c-0.1,0-0.1-0.1-0.1-0.2
		s0-0.2,0.1-0.2c1,0,1.6-0.1,2-0.3s0.5-0.7,0.5-1.5v-0.6l-0.7-14.3l-7.2,16.9c0,0.1-0.1,0.1-0.3,0.1c-0.1,0-0.2,0-0.3-0.1l-8.9-16.8
		l-0.3,12.6c0,1.3,0.2,2.2,0.8,3c0.5,0.7,1.3,1.1,2.2,1.1c0.1,0,0.1,0.1,0.1,0.2s0,0.2-0.1,0.2c-0.6,0-1.1,0-1.5,0h-1.9h-2.2
		c-0.4,0-0.9,0-1.5,0c-0.1,0-0.1-0.1-0.1-0.2s0-0.2,0.1-0.2c1,0,1.7-0.4,2.3-1.1c0.6-0.7,0.9-1.7,0.9-2.9l0.3-14.5l0,0
		c-0.5-0.9-1-1.5-1.5-1.9s-1.1-0.6-1.7-0.6c-0.1,0-0.1-0.1-0.1-0.2s0-0.2,0.1-0.2h1.6c0.3,0,0.7,0,1.3,0h1.9c0.2,0,0.5,0,0.8,0
		s0.5,0.1,0.7,0.3c0.2,0.2,0.5,0.7,0.9,1.5l7.6,14.3l6.6-15.3c0.1-0.3,0.3-0.6,0.4-0.7c0.2-0.1,0.4-0.2,0.6-0.2c0.2,0,0.4,0,0.7,0
		s0.6,0,0.9,0h2.1c0.3,0,0.8,0,1.4,0c0.1,0,0.1,0.1,0.1,0.2s0,0.2-0.1,0.2c-1.1,0-1.9,0.2-2.4,0.7s-0.7,1.1-0.7,2.1l0.8,15.9
		c0,0.7,0.1,1.2,0.3,1.6s0.4,0.5,0.7,0.7c0.3,0.1,0.9,0.2,1.6,0.2C238.4,527.8,238.5,527.8,238.5,528z"/>
	<path class="st0" d="M285.4,528c0,0.1,0,0.2-0.1,0.2c-0.8,0-1.5,0-2,0h-2.7h-3.1c-0.4,0-1,0-1.7,0c-0.1,0-0.1-0.1-0.1-0.2
		s0-0.2,0.1-0.2c0.9,0,1.5-0.1,1.9-0.2c0.4-0.1,0.7-0.3,0.8-0.7s0.2-0.9,0.2-1.6v-8h-11.3v8c0,0.7,0.1,1.2,0.2,1.6
		c0.1,0.3,0.4,0.6,0.8,0.7s1,0.2,1.9,0.2c0,0,0.1,0.1,0.1,0.2s0,0.2-0.1,0.2c-0.8,0-1.5,0-2,0h-3h-2.6c-0.5,0-1.1,0-1.9,0
		c0,0-0.1-0.1-0.1-0.2s0-0.2,0.1-0.2c0.8,0,1.4-0.1,1.8-0.2s0.6-0.3,0.8-0.7c0.1-0.3,0.2-0.9,0.2-1.6v-16.2c0-0.7-0.1-1.2-0.2-1.5
		s-0.4-0.6-0.8-0.7s-0.9-0.2-1.7-0.2c-0.1,0-0.1-0.1-0.1-0.2s0-0.2,0.1-0.2h1.9c1.1,0,1.9,0.1,2.6,0.1c0.9,0,1.9,0,3.1-0.1h1.9
		c0,0,0.1,0.1,0.1,0.2s0,0.2-0.1,0.2c-0.8,0-1.5,0.1-1.9,0.2s-0.7,0.4-0.8,0.7c-0.2,0.3-0.2,0.9-0.2,1.6v7.1h11.3v-7.1
		c0-0.7-0.1-1.2-0.2-1.6s-0.4-0.6-0.8-0.7s-1-0.2-1.9-0.2c-0.1,0-0.1-0.1-0.1-0.2s0-0.2,0.1-0.2h1.7c1.2,0,2.2,0.1,3.1,0.1
		c0.6,0,1.5,0,2.7-0.1h2c0.1,0,0.1,0.1,0.1,0.2s0,0.2-0.1,0.2c-0.8,0-1.4,0.1-1.8,0.2s-0.6,0.4-0.8,0.7c-0.1,0.3-0.2,0.8-0.2,1.5
		v16.2c0,0.7,0.1,1.2,0.2,1.6c0.1,0.3,0.4,0.6,0.8,0.7s1,0.2,1.8,0.2C285.4,527.8,285.4,527.8,285.4,528z"/>
	<path class="st0" d="M299.3,512.1c0.4,0.7,1,1.2,1.6,1.7s1.5,1.1,2.6,1.8c1.2,0.7,2.1,1.4,2.8,2c0.7,0.6,1.3,1.2,1.8,2
		s0.7,1.7,0.7,2.8c0,1.2-0.3,2.3-1,3.2s-1.6,1.7-2.7,2.2c-1.2,0.5-2.4,0.8-3.9,0.8c-1,0-2.1-0.1-3.3-0.4c-1.1-0.3-1.9-0.6-2.3-1
		c-0.1-0.1-0.2-0.2-0.3-0.3s-0.1-0.2-0.1-0.4l-0.1-5.6l0,0c0-0.1,0.1-0.1,0.2-0.2c0.1,0,0.2,0,0.2,0.1c0.7,1.4,1.3,2.6,1.8,3.5
		s1.2,1.7,2,2.3s1.7,1,2.7,1c0.9,0,1.7-0.2,2.3-0.8c0.6-0.5,0.9-1.4,0.9-2.6c0-1-0.2-1.9-0.7-2.7s-1-1.4-1.7-2
		c-0.7-0.5-1.6-1.2-2.7-1.9s-2-1.3-2.6-1.9c-0.6-0.5-1.2-1.1-1.6-1.9c-0.4-0.7-0.7-1.6-0.7-2.6c0-1.2,0.4-2.3,1.1-3.1
		c0.7-0.9,1.6-1.5,2.7-1.9s2.3-0.6,3.5-0.6c0.8,0,1.6,0.1,2.5,0.2s1.5,0.3,2,0.5c0.2,0.1,0.3,0.2,0.4,0.3c0.1,0.1,0.1,0.2,0.1,0.4
		v5.1c0,0.1-0.1,0.1-0.2,0.2c-0.1,0-0.2,0-0.2-0.1l-0.3-0.7c-0.6-1.5-1.3-2.7-2-3.7c-0.8-1-1.9-1.5-3.3-1.5c-0.9,0-1.7,0.3-2.3,0.8
		c-0.6,0.5-0.9,1.3-0.9,2.3C298.6,510.7,298.8,511.4,299.3,512.1z"/>
	<path class="st0" d="M318.5,512.5c0,0.1-0.1,0.1-0.2,0.1s-0.2-0.1-0.2-0.1c0.1-0.9,0.2-2.1,0.3-3.6c0.1-1.5,0.2-2.6,0.2-3.3
		c0-0.1,0.1-0.2,0.2-0.2s0.2,0.1,0.2,0.2c0,0.5,0.7,0.8,2,0.8c2,0.1,4.4,0.1,7,0.1c1.4,0,2.8,0,4.4-0.1h2.4c0.9,0,1.5-0.1,1.9-0.2
		s0.7-0.4,0.8-0.7c0-0.1,0.1-0.1,0.2-0.1s0.2,0,0.2,0.1c-0.1,0.7-0.1,1.8-0.2,3.4s-0.1,2.8-0.1,3.7c0,0.1-0.1,0.1-0.2,0.1
		s-0.2,0-0.2-0.1c-0.3-1.8-1-3.1-2-4s-2.1-1.3-3.5-1.3c-0.7,0-1.1,0.1-1.3,0.4c-0.2,0.3-0.3,0.8-0.3,1.7v16.1c0,0.7,0.1,1.2,0.2,1.6
		c0.1,0.3,0.4,0.5,0.8,0.7c0.4,0.1,1,0.2,1.9,0.2c0.1,0,0.1,0.1,0.1,0.2s0,0.2-0.1,0.2c-0.8,0-1.5,0-2,0h-2.9h-2.8c-0.5,0-1.2,0-2,0
		c-0.1,0-0.1-0.1-0.1-0.2s0-0.2,0.1-0.2c0.8,0,1.5-0.1,1.9-0.2s0.7-0.3,0.8-0.7c0.2-0.3,0.2-0.9,0.2-1.6v-16.2
		c0-0.8-0.1-1.3-0.3-1.6c-0.2-0.3-0.6-0.4-1.3-0.4C321.7,507.1,319.7,508.9,318.5,512.5z"/>
</g>
<line class="st2" x1="446.8" y1="339.3" x2="446.8" y2="528.2"/>
</svg>
